<?xml version="1.0" encoding="utf-8" standalone="no"?>
<!DOCTYPE svg PUBLIC "-//W3C//DTD SVG 1.1//EN"
  "http://www.w3.org/Graphics/SVG/1.1/DTD/svg11.dtd">
<svg xmlns:xlink="http://www.w3.org/1999/xlink" width="737.165625pt" height="285.3375pt" viewBox="0 0 737.165625 285.3375" xmlns="http://www.w3.org/2000/svg" version="1.1">
 <metadata>
  <rdf:RDF xmlns:dc="http://purl.org/dc/elements/1.1/" xmlns:cc="http://creativecommons.org/ns#" xmlns:rdf="http://www.w3.org/1999/02/22-rdf-syntax-ns#">
   <cc:Work>
    <dc:type rdf:resource="http://purl.org/dc/dcmitype/StillImage"/>
    <dc:date>2025-06-11T01:08:45.482757</dc:date>
    <dc:format>image/svg+xml</dc:format>
    <dc:creator>
     <cc:Agent>
      <dc:title>Matplotlib v3.5.1, https://matplotlib.org/</dc:title>
     </cc:Agent>
    </dc:creator>
   </cc:Work>
  </rdf:RDF>
 </metadata>
 <defs>
  <style type="text/css">*{stroke-linejoin: round; stroke-linecap: butt}</style>
 </defs>
 <g id="figure_1">
  <g id="patch_1">
   <path d="M 0 285.3375 
L 737.165625 285.3375 
L 737.165625 0 
L 0 0 
z
" style="fill: #ffffff"/>
  </g>
  <g id="axes_1">
   <g id="patch_2">
    <path d="M 60.365625 234.439375 
L 729.965625 234.439375 
L 729.965625 12.679375 
L 60.365625 12.679375 
z
" style="fill: #ffffff"/>
   </g>
   <g id="matplotlib.axis_1">
    <g id="xtick_1">
     <g id="line2d_1">
      <path d="M 90.127125 234.439375 
L 90.127125 12.679375 
" clip-path="url(#p08a57dc9f0)" style="fill: none; stroke: #b0b0b0; stroke-width: 0.8; stroke-linecap: square"/>
     </g>
     <g id="line2d_2">
      <defs>
       <path id="m83b0c12e86" d="M 0 0 
L 0 3.5 
" style="stroke: #000000; stroke-width: 0.8"/>
      </defs>
      <g>
       <use xlink:href="#m83b0c12e86" x="90.127125" y="234.439375" style="stroke: #000000; stroke-width: 0.8"/>
      </g>
     </g>
     <g id="text_1">
      <!-- 0 -->
      <g transform="translate(86.127125 252.549375)scale(0.16 -0.16)">
       <defs>
        <path id="TimesNewRomanPSMT-30" d="M 231 2094 
Q 231 2819 450 3342 
Q 669 3866 1031 4122 
Q 1313 4325 1613 4325 
Q 2100 4325 2488 3828 
Q 2972 3213 2972 2159 
Q 2972 1422 2759 906 
Q 2547 391 2217 158 
Q 1888 -75 1581 -75 
Q 975 -75 572 641 
Q 231 1244 231 2094 
z
M 844 2016 
Q 844 1141 1059 588 
Q 1238 122 1591 122 
Q 1759 122 1940 273 
Q 2122 425 2216 781 
Q 2359 1319 2359 2297 
Q 2359 3022 2209 3506 
Q 2097 3866 1919 4016 
Q 1791 4119 1609 4119 
Q 1397 4119 1231 3928 
Q 1006 3669 925 3112 
Q 844 2556 844 2016 
z
" transform="scale(0.015625)"/>
       </defs>
       <use xlink:href="#TimesNewRomanPSMT-30"/>
      </g>
     </g>
    </g>
    <g id="xtick_2">
     <g id="line2d_3">
      <path d="M 225.099912 234.439375 
L 225.099912 12.679375 
" clip-path="url(#p08a57dc9f0)" style="fill: none; stroke: #b0b0b0; stroke-width: 0.8; stroke-linecap: square"/>
     </g>
     <g id="line2d_4">
      <g>
       <use xlink:href="#m83b0c12e86" x="225.099912" y="234.439375" style="stroke: #000000; stroke-width: 0.8"/>
      </g>
     </g>
     <g id="text_2">
      <!-- 200 -->
      <g transform="translate(213.099912 252.549375)scale(0.16 -0.16)">
       <defs>
        <path id="TimesNewRomanPSMT-32" d="M 2934 816 
L 2638 0 
L 138 0 
L 138 116 
Q 1241 1122 1691 1759 
Q 2141 2397 2141 2925 
Q 2141 3328 1894 3587 
Q 1647 3847 1303 3847 
Q 991 3847 742 3664 
Q 494 3481 375 3128 
L 259 3128 
Q 338 3706 661 4015 
Q 984 4325 1469 4325 
Q 1984 4325 2329 3994 
Q 2675 3663 2675 3213 
Q 2675 2891 2525 2569 
Q 2294 2063 1775 1497 
Q 997 647 803 472 
L 1909 472 
Q 2247 472 2383 497 
Q 2519 522 2628 598 
Q 2738 675 2819 816 
L 2934 816 
z
" transform="scale(0.015625)"/>
       </defs>
       <use xlink:href="#TimesNewRomanPSMT-32"/>
       <use xlink:href="#TimesNewRomanPSMT-30" x="50"/>
       <use xlink:href="#TimesNewRomanPSMT-30" x="100"/>
      </g>
     </g>
    </g>
    <g id="xtick_3">
     <g id="line2d_5">
      <path d="M 360.0727 234.439375 
L 360.0727 12.679375 
" clip-path="url(#p08a57dc9f0)" style="fill: none; stroke: #b0b0b0; stroke-width: 0.8; stroke-linecap: square"/>
     </g>
     <g id="line2d_6">
      <g>
       <use xlink:href="#m83b0c12e86" x="360.0727" y="234.439375" style="stroke: #000000; stroke-width: 0.8"/>
      </g>
     </g>
     <g id="text_3">
      <!-- 400 -->
      <g transform="translate(348.0727 252.549375)scale(0.16 -0.16)">
       <defs>
        <path id="TimesNewRomanPSMT-34" d="M 2978 1563 
L 2978 1119 
L 2409 1119 
L 2409 0 
L 1894 0 
L 1894 1119 
L 100 1119 
L 100 1519 
L 2066 4325 
L 2409 4325 
L 2409 1563 
L 2978 1563 
z
M 1894 1563 
L 1894 3666 
L 406 1563 
L 1894 1563 
z
" transform="scale(0.015625)"/>
       </defs>
       <use xlink:href="#TimesNewRomanPSMT-34"/>
       <use xlink:href="#TimesNewRomanPSMT-30" x="50"/>
       <use xlink:href="#TimesNewRomanPSMT-30" x="100"/>
      </g>
     </g>
    </g>
    <g id="xtick_4">
     <g id="line2d_7">
      <path d="M 495.045488 234.439375 
L 495.045488 12.679375 
" clip-path="url(#p08a57dc9f0)" style="fill: none; stroke: #b0b0b0; stroke-width: 0.8; stroke-linecap: square"/>
     </g>
     <g id="line2d_8">
      <g>
       <use xlink:href="#m83b0c12e86" x="495.045488" y="234.439375" style="stroke: #000000; stroke-width: 0.8"/>
      </g>
     </g>
     <g id="text_4">
      <!-- 600 -->
      <g transform="translate(483.045488 252.549375)scale(0.16 -0.16)">
       <defs>
        <path id="TimesNewRomanPSMT-36" d="M 2869 4325 
L 2869 4209 
Q 2456 4169 2195 4045 
Q 1934 3922 1679 3669 
Q 1425 3416 1258 3105 
Q 1091 2794 978 2366 
Q 1428 2675 1881 2675 
Q 2316 2675 2634 2325 
Q 2953 1975 2953 1425 
Q 2953 894 2631 456 
Q 2244 -75 1606 -75 
Q 1172 -75 869 213 
Q 275 772 275 1663 
Q 275 2231 503 2743 
Q 731 3256 1154 3653 
Q 1578 4050 1965 4187 
Q 2353 4325 2688 4325 
L 2869 4325 
z
M 925 2138 
Q 869 1716 869 1456 
Q 869 1156 980 804 
Q 1091 453 1309 247 
Q 1469 100 1697 100 
Q 1969 100 2183 356 
Q 2397 613 2397 1088 
Q 2397 1622 2184 2012 
Q 1972 2403 1581 2403 
Q 1463 2403 1327 2353 
Q 1191 2303 925 2138 
z
" transform="scale(0.015625)"/>
       </defs>
       <use xlink:href="#TimesNewRomanPSMT-36"/>
       <use xlink:href="#TimesNewRomanPSMT-30" x="50"/>
       <use xlink:href="#TimesNewRomanPSMT-30" x="100"/>
      </g>
     </g>
    </g>
    <g id="xtick_5">
     <g id="line2d_9">
      <path d="M 630.018276 234.439375 
L 630.018276 12.679375 
" clip-path="url(#p08a57dc9f0)" style="fill: none; stroke: #b0b0b0; stroke-width: 0.8; stroke-linecap: square"/>
     </g>
     <g id="line2d_10">
      <g>
       <use xlink:href="#m83b0c12e86" x="630.018276" y="234.439375" style="stroke: #000000; stroke-width: 0.8"/>
      </g>
     </g>
     <g id="text_5">
      <!-- 800 -->
      <g transform="translate(618.018276 252.549375)scale(0.16 -0.16)">
       <defs>
        <path id="TimesNewRomanPSMT-38" d="M 1228 2134 
Q 725 2547 579 2797 
Q 434 3047 434 3316 
Q 434 3728 753 4026 
Q 1072 4325 1600 4325 
Q 2113 4325 2425 4047 
Q 2738 3769 2738 3413 
Q 2738 3175 2569 2928 
Q 2400 2681 1866 2347 
Q 2416 1922 2594 1678 
Q 2831 1359 2831 1006 
Q 2831 559 2490 242 
Q 2150 -75 1597 -75 
Q 994 -75 656 303 
Q 388 606 388 966 
Q 388 1247 577 1523 
Q 766 1800 1228 2134 
z
M 1719 2469 
Q 2094 2806 2194 3001 
Q 2294 3197 2294 3444 
Q 2294 3772 2109 3958 
Q 1925 4144 1606 4144 
Q 1288 4144 1088 3959 
Q 888 3775 888 3528 
Q 888 3366 970 3203 
Q 1053 3041 1206 2894 
L 1719 2469 
z
M 1375 2016 
Q 1116 1797 991 1539 
Q 866 1281 866 981 
Q 866 578 1086 336 
Q 1306 94 1647 94 
Q 1984 94 2187 284 
Q 2391 475 2391 747 
Q 2391 972 2272 1150 
Q 2050 1481 1375 2016 
z
" transform="scale(0.015625)"/>
       </defs>
       <use xlink:href="#TimesNewRomanPSMT-38"/>
       <use xlink:href="#TimesNewRomanPSMT-30" x="50"/>
       <use xlink:href="#TimesNewRomanPSMT-30" x="100"/>
      </g>
     </g>
    </g>
    <g id="text_6">
     <!-- Time (5s) -->
     <g transform="translate(356.360938 273.859375)scale(0.2 -0.2)">
      <defs>
       <path id="TimesNewRomanPSMT-54" d="M 3703 4238 
L 3750 3244 
L 3631 3244 
Q 3597 3506 3538 3619 
Q 3441 3800 3280 3886 
Q 3119 3972 2856 3972 
L 2259 3972 
L 2259 734 
Q 2259 344 2344 247 
Q 2463 116 2709 116 
L 2856 116 
L 2856 0 
L 1059 0 
L 1059 116 
L 1209 116 
Q 1478 116 1591 278 
Q 1659 378 1659 734 
L 1659 3972 
L 1150 3972 
Q 853 3972 728 3928 
Q 566 3869 450 3700 
Q 334 3531 313 3244 
L 194 3244 
L 244 4238 
L 3703 4238 
z
" transform="scale(0.015625)"/>
       <path id="TimesNewRomanPSMT-69" d="M 928 4444 
Q 1059 4444 1151 4351 
Q 1244 4259 1244 4128 
Q 1244 3997 1151 3903 
Q 1059 3809 928 3809 
Q 797 3809 703 3903 
Q 609 3997 609 4128 
Q 609 4259 701 4351 
Q 794 4444 928 4444 
z
M 1188 2947 
L 1188 647 
Q 1188 378 1227 289 
Q 1266 200 1342 156 
Q 1419 113 1622 113 
L 1622 0 
L 231 0 
L 231 113 
Q 441 113 512 153 
Q 584 194 626 287 
Q 669 381 669 647 
L 669 1750 
Q 669 2216 641 2353 
Q 619 2453 572 2492 
Q 525 2531 444 2531 
Q 356 2531 231 2484 
L 188 2597 
L 1050 2947 
L 1188 2947 
z
" transform="scale(0.015625)"/>
       <path id="TimesNewRomanPSMT-6d" d="M 1050 2338 
Q 1363 2650 1419 2697 
Q 1559 2816 1721 2881 
Q 1884 2947 2044 2947 
Q 2313 2947 2506 2790 
Q 2700 2634 2766 2338 
Q 3088 2713 3309 2830 
Q 3531 2947 3766 2947 
Q 3994 2947 4170 2830 
Q 4347 2713 4450 2447 
Q 4519 2266 4519 1878 
L 4519 647 
Q 4519 378 4559 278 
Q 4591 209 4675 161 
Q 4759 113 4950 113 
L 4950 0 
L 3538 0 
L 3538 113 
L 3597 113 
Q 3781 113 3884 184 
Q 3956 234 3988 344 
Q 4000 397 4000 647 
L 4000 1878 
Q 4000 2228 3916 2372 
Q 3794 2572 3525 2572 
Q 3359 2572 3192 2489 
Q 3025 2406 2788 2181 
L 2781 2147 
L 2788 2013 
L 2788 647 
Q 2788 353 2820 281 
Q 2853 209 2943 161 
Q 3034 113 3253 113 
L 3253 0 
L 1806 0 
L 1806 113 
Q 2044 113 2133 169 
Q 2222 225 2256 338 
Q 2272 391 2272 647 
L 2272 1878 
Q 2272 2228 2169 2381 
Q 2031 2581 1784 2581 
Q 1616 2581 1450 2491 
Q 1191 2353 1050 2181 
L 1050 647 
Q 1050 366 1089 281 
Q 1128 197 1204 155 
Q 1281 113 1516 113 
L 1516 0 
L 100 0 
L 100 113 
Q 297 113 375 155 
Q 453 197 493 289 
Q 534 381 534 647 
L 534 1741 
Q 534 2213 506 2350 
Q 484 2453 437 2492 
Q 391 2531 309 2531 
Q 222 2531 100 2484 
L 53 2597 
L 916 2947 
L 1050 2947 
L 1050 2338 
z
" transform="scale(0.015625)"/>
       <path id="TimesNewRomanPSMT-65" d="M 681 1784 
Q 678 1147 991 784 
Q 1303 422 1725 422 
Q 2006 422 2214 576 
Q 2422 731 2563 1106 
L 2659 1044 
Q 2594 616 2278 264 
Q 1963 -88 1488 -88 
Q 972 -88 605 314 
Q 238 716 238 1394 
Q 238 2128 614 2539 
Q 991 2950 1559 2950 
Q 2041 2950 2350 2633 
Q 2659 2316 2659 1784 
L 681 1784 
z
M 681 1966 
L 2006 1966 
Q 1991 2241 1941 2353 
Q 1863 2528 1708 2628 
Q 1553 2728 1384 2728 
Q 1125 2728 920 2526 
Q 716 2325 681 1966 
z
" transform="scale(0.015625)"/>
       <path id="TimesNewRomanPSMT-20" transform="scale(0.015625)"/>
       <path id="TimesNewRomanPSMT-28" d="M 1988 -1253 
L 1988 -1369 
Q 1516 -1131 1200 -813 
Q 750 -359 506 256 
Q 263 872 263 1534 
Q 263 2503 741 3301 
Q 1219 4100 1988 4444 
L 1988 4313 
Q 1603 4100 1356 3731 
Q 1109 3363 987 2797 
Q 866 2231 866 1616 
Q 866 947 969 400 
Q 1050 -31 1165 -292 
Q 1281 -553 1476 -793 
Q 1672 -1034 1988 -1253 
z
" transform="scale(0.015625)"/>
       <path id="TimesNewRomanPSMT-35" d="M 2778 4238 
L 2534 3706 
L 1259 3706 
L 981 3138 
Q 1809 3016 2294 2522 
Q 2709 2097 2709 1522 
Q 2709 1188 2573 903 
Q 2438 619 2231 419 
Q 2025 219 1772 97 
Q 1413 -75 1034 -75 
Q 653 -75 479 54 
Q 306 184 306 341 
Q 306 428 378 495 
Q 450 563 559 563 
Q 641 563 702 538 
Q 763 513 909 409 
Q 1144 247 1384 247 
Q 1750 247 2026 523 
Q 2303 800 2303 1197 
Q 2303 1581 2056 1914 
Q 1809 2247 1375 2428 
Q 1034 2569 447 2591 
L 1259 4238 
L 2778 4238 
z
" transform="scale(0.015625)"/>
       <path id="TimesNewRomanPSMT-73" d="M 2050 2947 
L 2050 1972 
L 1947 1972 
Q 1828 2431 1642 2597 
Q 1456 2763 1169 2763 
Q 950 2763 815 2647 
Q 681 2531 681 2391 
Q 681 2216 781 2091 
Q 878 1963 1175 1819 
L 1631 1597 
Q 2266 1288 2266 781 
Q 2266 391 1970 151 
Q 1675 -88 1309 -88 
Q 1047 -88 709 6 
Q 606 38 541 38 
Q 469 38 428 -44 
L 325 -44 
L 325 978 
L 428 978 
Q 516 541 762 319 
Q 1009 97 1316 97 
Q 1531 97 1667 223 
Q 1803 350 1803 528 
Q 1803 744 1651 891 
Q 1500 1038 1047 1263 
Q 594 1488 453 1669 
Q 313 1847 313 2119 
Q 313 2472 555 2709 
Q 797 2947 1181 2947 
Q 1350 2947 1591 2875 
Q 1750 2828 1803 2828 
Q 1853 2828 1881 2850 
Q 1909 2872 1947 2947 
L 2050 2947 
z
" transform="scale(0.015625)"/>
       <path id="TimesNewRomanPSMT-29" d="M 144 4313 
L 144 4444 
Q 619 4209 934 3891 
Q 1381 3434 1625 2820 
Q 1869 2206 1869 1541 
Q 1869 572 1392 -226 
Q 916 -1025 144 -1369 
L 144 -1253 
Q 528 -1038 776 -670 
Q 1025 -303 1145 264 
Q 1266 831 1266 1447 
Q 1266 2113 1163 2663 
Q 1084 3094 967 3353 
Q 850 3613 656 3853 
Q 463 4094 144 4313 
z
" transform="scale(0.015625)"/>
      </defs>
      <use xlink:href="#TimesNewRomanPSMT-54"/>
      <use xlink:href="#TimesNewRomanPSMT-69" x="57.583984"/>
      <use xlink:href="#TimesNewRomanPSMT-6d" x="85.367188"/>
      <use xlink:href="#TimesNewRomanPSMT-65" x="163.150391"/>
      <use xlink:href="#TimesNewRomanPSMT-20" x="207.535156"/>
      <use xlink:href="#TimesNewRomanPSMT-28" x="232.535156"/>
      <use xlink:href="#TimesNewRomanPSMT-35" x="265.835938"/>
      <use xlink:href="#TimesNewRomanPSMT-73" x="315.835938"/>
      <use xlink:href="#TimesNewRomanPSMT-29" x="354.751953"/>
     </g>
    </g>
   </g>
   <g id="matplotlib.axis_2">
    <g id="ytick_1">
     <g id="line2d_11">
      <path d="M 60.365625 184.039375 
L 729.965625 184.039375 
" clip-path="url(#p08a57dc9f0)" style="fill: none; stroke: #b0b0b0; stroke-width: 0.8; stroke-linecap: square"/>
     </g>
     <g id="line2d_12">
      <defs>
       <path id="mc00afff3e6" d="M 0 0 
L -3.5 0 
" style="stroke: #000000; stroke-width: 0.8"/>
      </defs>
      <g>
       <use xlink:href="#mc00afff3e6" x="60.365625" y="184.039375" style="stroke: #000000; stroke-width: 0.8"/>
      </g>
     </g>
     <g id="text_7">
      <!-- 40 -->
      <g transform="translate(37.365625 189.594375)scale(0.16 -0.16)">
       <use xlink:href="#TimesNewRomanPSMT-34"/>
       <use xlink:href="#TimesNewRomanPSMT-30" x="50"/>
      </g>
     </g>
    </g>
    <g id="ytick_2">
     <g id="line2d_13">
      <path d="M 60.365625 130.279375 
L 729.965625 130.279375 
" clip-path="url(#p08a57dc9f0)" style="fill: none; stroke: #b0b0b0; stroke-width: 0.8; stroke-linecap: square"/>
     </g>
     <g id="line2d_14">
      <g>
       <use xlink:href="#mc00afff3e6" x="60.365625" y="130.279375" style="stroke: #000000; stroke-width: 0.8"/>
      </g>
     </g>
     <g id="text_8">
      <!-- 60 -->
      <g transform="translate(37.365625 135.834375)scale(0.16 -0.16)">
       <use xlink:href="#TimesNewRomanPSMT-36"/>
       <use xlink:href="#TimesNewRomanPSMT-30" x="50"/>
      </g>
     </g>
    </g>
    <g id="ytick_3">
     <g id="line2d_15">
      <path d="M 60.365625 76.519375 
L 729.965625 76.519375 
" clip-path="url(#p08a57dc9f0)" style="fill: none; stroke: #b0b0b0; stroke-width: 0.8; stroke-linecap: square"/>
     </g>
     <g id="line2d_16">
      <g>
       <use xlink:href="#mc00afff3e6" x="60.365625" y="76.519375" style="stroke: #000000; stroke-width: 0.8"/>
      </g>
     </g>
     <g id="text_9">
      <!-- 80 -->
      <g transform="translate(37.365625 82.074375)scale(0.16 -0.16)">
       <use xlink:href="#TimesNewRomanPSMT-38"/>
       <use xlink:href="#TimesNewRomanPSMT-30" x="50"/>
      </g>
     </g>
    </g>
    <g id="ytick_4">
     <g id="line2d_17">
      <path d="M 60.365625 22.759375 
L 729.965625 22.759375 
" clip-path="url(#p08a57dc9f0)" style="fill: none; stroke: #b0b0b0; stroke-width: 0.8; stroke-linecap: square"/>
     </g>
     <g id="line2d_18">
      <g>
       <use xlink:href="#mc00afff3e6" x="60.365625" y="22.759375" style="stroke: #000000; stroke-width: 0.8"/>
      </g>
     </g>
     <g id="text_10">
      <!-- 100 -->
      <g transform="translate(29.365625 28.314375)scale(0.16 -0.16)">
       <defs>
        <path id="TimesNewRomanPSMT-31" d="M 750 3822 
L 1781 4325 
L 1884 4325 
L 1884 747 
Q 1884 391 1914 303 
Q 1944 216 2037 169 
Q 2131 122 2419 116 
L 2419 0 
L 825 0 
L 825 116 
Q 1125 122 1212 167 
Q 1300 213 1334 289 
Q 1369 366 1369 747 
L 1369 3034 
Q 1369 3497 1338 3628 
Q 1316 3728 1258 3775 
Q 1200 3822 1119 3822 
Q 1003 3822 797 3725 
L 750 3822 
z
" transform="scale(0.015625)"/>
       </defs>
       <use xlink:href="#TimesNewRomanPSMT-31"/>
       <use xlink:href="#TimesNewRomanPSMT-30" x="50"/>
       <use xlink:href="#TimesNewRomanPSMT-30" x="100"/>
      </g>
     </g>
    </g>
    <g id="text_11">
     <!-- Number of Concurrent Users -->
     <g transform="translate(21.0875 239.91875)rotate(-90)scale(0.2 -0.2)">
      <defs>
       <path id="TimesNewRomanPSMT-4e" d="M -84 4238 
L 1066 4238 
L 3656 1059 
L 3656 3503 
Q 3656 3894 3569 3991 
Q 3453 4122 3203 4122 
L 3056 4122 
L 3056 4238 
L 4531 4238 
L 4531 4122 
L 4381 4122 
Q 4113 4122 4000 3959 
Q 3931 3859 3931 3503 
L 3931 -69 
L 3819 -69 
L 1025 3344 
L 1025 734 
Q 1025 344 1109 247 
Q 1228 116 1475 116 
L 1625 116 
L 1625 0 
L 150 0 
L 150 116 
L 297 116 
Q 569 116 681 278 
Q 750 378 750 734 
L 750 3681 
Q 566 3897 470 3965 
Q 375 4034 191 4094 
Q 100 4122 -84 4122 
L -84 4238 
z
" transform="scale(0.015625)"/>
       <path id="TimesNewRomanPSMT-75" d="M 2709 2863 
L 2709 1128 
Q 2709 631 2732 520 
Q 2756 409 2807 365 
Q 2859 322 2928 322 
Q 3025 322 3147 375 
L 3191 266 
L 2334 -88 
L 2194 -88 
L 2194 519 
Q 1825 119 1631 15 
Q 1438 -88 1222 -88 
Q 981 -88 804 51 
Q 628 191 559 409 
Q 491 628 491 1028 
L 491 2306 
Q 491 2509 447 2587 
Q 403 2666 317 2708 
Q 231 2750 6 2747 
L 6 2863 
L 1009 2863 
L 1009 947 
Q 1009 547 1148 422 
Q 1288 297 1484 297 
Q 1619 297 1789 381 
Q 1959 466 2194 703 
L 2194 2325 
Q 2194 2569 2105 2655 
Q 2016 2741 1734 2747 
L 1734 2863 
L 2709 2863 
z
" transform="scale(0.015625)"/>
       <path id="TimesNewRomanPSMT-62" d="M 984 2369 
Q 1400 2947 1881 2947 
Q 2322 2947 2650 2570 
Q 2978 2194 2978 1541 
Q 2978 778 2472 313 
Q 2038 -88 1503 -88 
Q 1253 -88 995 3 
Q 738 94 469 275 
L 469 3241 
Q 469 3728 445 3840 
Q 422 3953 372 3993 
Q 322 4034 247 4034 
Q 159 4034 28 3984 
L -16 4094 
L 844 4444 
L 984 4444 
L 984 2369 
z
M 984 2169 
L 984 456 
Q 1144 300 1314 220 
Q 1484 141 1663 141 
Q 1947 141 2192 453 
Q 2438 766 2438 1363 
Q 2438 1913 2192 2208 
Q 1947 2503 1634 2503 
Q 1469 2503 1303 2419 
Q 1178 2356 984 2169 
z
" transform="scale(0.015625)"/>
       <path id="TimesNewRomanPSMT-72" d="M 1038 2947 
L 1038 2303 
Q 1397 2947 1775 2947 
Q 1947 2947 2059 2842 
Q 2172 2738 2172 2600 
Q 2172 2478 2090 2393 
Q 2009 2309 1897 2309 
Q 1788 2309 1652 2417 
Q 1516 2525 1450 2525 
Q 1394 2525 1328 2463 
Q 1188 2334 1038 2041 
L 1038 669 
Q 1038 431 1097 309 
Q 1138 225 1241 169 
Q 1344 113 1538 113 
L 1538 0 
L 72 0 
L 72 113 
Q 291 113 397 181 
Q 475 231 506 341 
Q 522 394 522 644 
L 522 1753 
Q 522 2253 501 2348 
Q 481 2444 426 2487 
Q 372 2531 291 2531 
Q 194 2531 72 2484 
L 41 2597 
L 906 2947 
L 1038 2947 
z
" transform="scale(0.015625)"/>
       <path id="TimesNewRomanPSMT-6f" d="M 1600 2947 
Q 2250 2947 2644 2453 
Q 2978 2031 2978 1484 
Q 2978 1100 2793 706 
Q 2609 313 2286 112 
Q 1963 -88 1566 -88 
Q 919 -88 538 428 
Q 216 863 216 1403 
Q 216 1797 411 2186 
Q 606 2575 925 2761 
Q 1244 2947 1600 2947 
z
M 1503 2744 
Q 1338 2744 1170 2645 
Q 1003 2547 900 2300 
Q 797 2053 797 1666 
Q 797 1041 1045 587 
Q 1294 134 1700 134 
Q 2003 134 2200 384 
Q 2397 634 2397 1244 
Q 2397 2006 2069 2444 
Q 1847 2744 1503 2744 
z
" transform="scale(0.015625)"/>
       <path id="TimesNewRomanPSMT-66" d="M 1319 2638 
L 1319 756 
Q 1319 356 1406 250 
Q 1522 113 1716 113 
L 1975 113 
L 1975 0 
L 266 0 
L 266 113 
L 394 113 
Q 519 113 622 175 
Q 725 238 764 344 
Q 803 450 803 756 
L 803 2638 
L 247 2638 
L 247 2863 
L 803 2863 
L 803 3050 
Q 803 3478 940 3775 
Q 1078 4072 1361 4255 
Q 1644 4438 1997 4438 
Q 2325 4438 2600 4225 
Q 2781 4084 2781 3909 
Q 2781 3816 2700 3733 
Q 2619 3650 2525 3650 
Q 2453 3650 2373 3701 
Q 2294 3753 2178 3923 
Q 2063 4094 1966 4153 
Q 1869 4213 1750 4213 
Q 1606 4213 1506 4136 
Q 1406 4059 1362 3898 
Q 1319 3738 1319 3069 
L 1319 2863 
L 2056 2863 
L 2056 2638 
L 1319 2638 
z
" transform="scale(0.015625)"/>
       <path id="TimesNewRomanPSMT-43" d="M 3853 4334 
L 3950 2894 
L 3853 2894 
Q 3659 3541 3300 3825 
Q 2941 4109 2438 4109 
Q 2016 4109 1675 3895 
Q 1334 3681 1139 3212 
Q 944 2744 944 2047 
Q 944 1472 1128 1050 
Q 1313 628 1683 403 
Q 2053 178 2528 178 
Q 2941 178 3256 354 
Q 3572 531 3950 1056 
L 4047 994 
Q 3728 428 3303 165 
Q 2878 -97 2294 -97 
Q 1241 -97 663 684 
Q 231 1266 231 2053 
Q 231 2688 515 3219 
Q 800 3750 1298 4042 
Q 1797 4334 2388 4334 
Q 2847 4334 3294 4109 
Q 3425 4041 3481 4041 
Q 3566 4041 3628 4100 
Q 3709 4184 3744 4334 
L 3853 4334 
z
" transform="scale(0.015625)"/>
       <path id="TimesNewRomanPSMT-6e" d="M 1034 2341 
Q 1538 2947 1994 2947 
Q 2228 2947 2397 2830 
Q 2566 2713 2666 2444 
Q 2734 2256 2734 1869 
L 2734 647 
Q 2734 375 2778 278 
Q 2813 200 2889 156 
Q 2966 113 3172 113 
L 3172 0 
L 1756 0 
L 1756 113 
L 1816 113 
Q 2016 113 2095 173 
Q 2175 234 2206 353 
Q 2219 400 2219 647 
L 2219 1819 
Q 2219 2209 2117 2386 
Q 2016 2563 1775 2563 
Q 1403 2563 1034 2156 
L 1034 647 
Q 1034 356 1069 288 
Q 1113 197 1189 155 
Q 1266 113 1500 113 
L 1500 0 
L 84 0 
L 84 113 
L 147 113 
Q 366 113 442 223 
Q 519 334 519 647 
L 519 1709 
Q 519 2225 495 2337 
Q 472 2450 423 2490 
Q 375 2531 294 2531 
Q 206 2531 84 2484 
L 38 2597 
L 900 2947 
L 1034 2947 
L 1034 2341 
z
" transform="scale(0.015625)"/>
       <path id="TimesNewRomanPSMT-63" d="M 2631 1088 
Q 2516 522 2178 217 
Q 1841 -88 1431 -88 
Q 944 -88 581 321 
Q 219 731 219 1428 
Q 219 2103 620 2525 
Q 1022 2947 1584 2947 
Q 2006 2947 2278 2723 
Q 2550 2500 2550 2259 
Q 2550 2141 2473 2067 
Q 2397 1994 2259 1994 
Q 2075 1994 1981 2113 
Q 1928 2178 1911 2362 
Q 1894 2547 1784 2644 
Q 1675 2738 1481 2738 
Q 1169 2738 978 2506 
Q 725 2200 725 1697 
Q 725 1184 976 792 
Q 1228 400 1656 400 
Q 1963 400 2206 609 
Q 2378 753 2541 1131 
L 2631 1088 
z
" transform="scale(0.015625)"/>
       <path id="TimesNewRomanPSMT-74" d="M 1031 3803 
L 1031 2863 
L 1700 2863 
L 1700 2644 
L 1031 2644 
L 1031 788 
Q 1031 509 1111 412 
Q 1191 316 1316 316 
Q 1419 316 1516 380 
Q 1613 444 1666 569 
L 1788 569 
Q 1678 263 1478 108 
Q 1278 -47 1066 -47 
Q 922 -47 784 33 
Q 647 113 581 261 
Q 516 409 516 719 
L 516 2644 
L 63 2644 
L 63 2747 
Q 234 2816 414 2980 
Q 594 3144 734 3369 
Q 806 3488 934 3803 
L 1031 3803 
z
" transform="scale(0.015625)"/>
       <path id="TimesNewRomanPSMT-55" d="M 3053 4122 
L 3053 4238 
L 4553 4238 
L 4553 4122 
L 4394 4122 
Q 4144 4122 4009 3913 
Q 3944 3816 3944 3463 
L 3944 1744 
Q 3944 1106 3817 754 
Q 3691 403 3320 151 
Q 2950 -100 2313 -100 
Q 1619 -100 1259 140 
Q 900 381 750 788 
Q 650 1066 650 1831 
L 650 3488 
Q 650 3878 542 4000 
Q 434 4122 194 4122 
L 34 4122 
L 34 4238 
L 1866 4238 
L 1866 4122 
L 1703 4122 
Q 1441 4122 1328 3956 
Q 1250 3844 1250 3488 
L 1250 1641 
Q 1250 1394 1295 1075 
Q 1341 756 1459 578 
Q 1578 400 1801 284 
Q 2025 169 2350 169 
Q 2766 169 3094 350 
Q 3422 531 3542 814 
Q 3663 1097 3663 1772 
L 3663 3488 
Q 3663 3884 3575 3984 
Q 3453 4122 3213 4122 
L 3053 4122 
z
" transform="scale(0.015625)"/>
      </defs>
      <use xlink:href="#TimesNewRomanPSMT-4e"/>
      <use xlink:href="#TimesNewRomanPSMT-75" x="72.216797"/>
      <use xlink:href="#TimesNewRomanPSMT-6d" x="122.216797"/>
      <use xlink:href="#TimesNewRomanPSMT-62" x="200"/>
      <use xlink:href="#TimesNewRomanPSMT-65" x="250"/>
      <use xlink:href="#TimesNewRomanPSMT-72" x="294.384766"/>
      <use xlink:href="#TimesNewRomanPSMT-20" x="327.685547"/>
      <use xlink:href="#TimesNewRomanPSMT-6f" x="352.685547"/>
      <use xlink:href="#TimesNewRomanPSMT-66" x="402.685547"/>
      <use xlink:href="#TimesNewRomanPSMT-20" x="435.986328"/>
      <use xlink:href="#TimesNewRomanPSMT-43" x="460.986328"/>
      <use xlink:href="#TimesNewRomanPSMT-6f" x="527.685547"/>
      <use xlink:href="#TimesNewRomanPSMT-6e" x="577.685547"/>
      <use xlink:href="#TimesNewRomanPSMT-63" x="627.685547"/>
      <use xlink:href="#TimesNewRomanPSMT-75" x="672.070312"/>
      <use xlink:href="#TimesNewRomanPSMT-72" x="722.070312"/>
      <use xlink:href="#TimesNewRomanPSMT-72" x="755.371094"/>
      <use xlink:href="#TimesNewRomanPSMT-65" x="788.671875"/>
      <use xlink:href="#TimesNewRomanPSMT-6e" x="833.056641"/>
      <use xlink:href="#TimesNewRomanPSMT-74" x="883.056641"/>
      <use xlink:href="#TimesNewRomanPSMT-20" x="910.839844"/>
      <use xlink:href="#TimesNewRomanPSMT-55" x="935.839844"/>
      <use xlink:href="#TimesNewRomanPSMT-73" x="1008.056641"/>
      <use xlink:href="#TimesNewRomanPSMT-65" x="1046.972656"/>
      <use xlink:href="#TimesNewRomanPSMT-72" x="1091.357422"/>
      <use xlink:href="#TimesNewRomanPSMT-73" x="1124.658203"/>
     </g>
    </g>
   </g>
   <g id="line2d_19">
    <path d="M 90.801989 221.671375 
L 91.476853 221.671375 
L 92.151717 218.983375 
L 92.82658 224.359375 
L 93.501444 221.671375 
L 94.176308 221.671375 
L 94.851172 224.359375 
L 95.526036 224.359375 
L 96.2009 218.983375 
L 96.875764 221.671375 
L 97.550628 216.295375 
L 98.225492 213.607375 
L 98.900356 218.983375 
L 99.57522 213.607375 
L 100.250084 216.295375 
L 100.924948 213.607375 
L 101.599812 218.983375 
L 102.274676 218.983375 
L 103.624403 213.607375 
L 104.299267 205.543375 
L 105.648995 210.919375 
L 106.323859 205.543375 
L 106.998723 210.919375 
L 107.673587 208.231375 
L 108.348451 208.231375 
L 109.023315 205.543375 
L 109.698179 205.543375 
L 110.373043 210.919375 
L 111.047907 205.543375 
L 112.397635 200.167375 
L 113.072499 205.543375 
L 113.747363 200.167375 
L 114.422226 205.543375 
L 115.09709 205.543375 
L 115.771954 202.855375 
L 116.446818 205.543375 
L 117.121682 197.479375 
L 118.47141 192.103375 
L 119.146274 194.791375 
L 119.821138 192.103375 
L 121.170866 197.479375 
L 121.84573 194.791375 
L 122.520594 197.479375 
L 124.545186 189.415375 
L 125.22005 181.351375 
L 125.894913 186.727375 
L 127.244641 175.975375 
L 127.919505 184.039375 
L 129.269233 178.663375 
L 129.944097 178.663375 
L 130.618961 181.351375 
L 131.293825 178.663375 
L 131.968689 184.039375 
L 132.643553 186.727375 
L 133.318417 175.975375 
L 133.993281 173.287375 
L 134.668145 178.663375 
L 135.343009 175.975375 
L 136.017873 186.727375 
L 136.692736 175.975375 
L 137.3676 173.287375 
L 138.042464 173.287375 
L 138.717328 175.975375 
L 139.392192 175.975375 
L 140.74192 170.599375 
L 141.416784 175.975375 
L 143.441376 167.911375 
L 145.465968 167.911375 
L 146.140832 165.223375 
L 147.490559 165.223375 
L 148.165423 159.847375 
L 148.840287 157.159375 
L 149.515151 151.783375 
L 150.190015 151.783375 
L 150.864879 146.407375 
L 152.214607 146.407375 
L 153.564335 141.031375 
L 154.239199 141.031375 
L 154.914063 146.407375 
L 155.588927 143.719375 
L 156.263791 143.719375 
L 156.938655 151.783375 
L 158.288383 141.031375 
L 158.963246 138.343375 
L 159.63811 143.719375 
L 160.987838 149.095375 
L 162.337566 143.719375 
L 163.01243 143.719375 
L 163.687294 149.095375 
L 164.362158 146.407375 
L 165.037022 151.783375 
L 165.711886 146.407375 
L 167.061614 151.783375 
L 168.411342 146.407375 
L 169.086206 146.407375 
L 169.761069 138.343375 
L 170.435933 138.343375 
L 171.110797 135.655375 
L 171.785661 143.719375 
L 172.460525 141.031375 
L 173.135389 146.407375 
L 173.810253 143.719375 
L 174.485117 146.407375 
L 175.159981 143.719375 
L 175.834845 143.719375 
L 176.509709 141.031375 
L 177.184573 143.719375 
L 177.859437 135.655375 
L 178.534301 132.967375 
L 179.209165 138.343375 
L 179.884029 132.967375 
L 180.558892 124.903375 
L 181.233756 132.967375 
L 181.90862 130.279375 
L 182.583484 132.967375 
L 183.933212 127.591375 
L 184.608076 138.343375 
L 185.28294 135.655375 
L 185.957804 127.591375 
L 186.632668 132.967375 
L 187.982396 122.215375 
L 188.65726 130.279375 
L 190.006988 124.903375 
L 190.681852 124.903375 
L 191.356716 127.591375 
L 192.031579 124.903375 
L 192.706443 130.279375 
L 193.381307 132.967375 
L 194.056171 122.215375 
L 194.731035 119.527375 
L 195.405899 124.903375 
L 196.080763 122.215375 
L 196.755627 132.967375 
L 197.430491 122.215375 
L 198.105355 119.527375 
L 198.780219 119.527375 
L 199.455083 122.215375 
L 200.129947 122.215375 
L 201.479675 116.839375 
L 202.154539 122.215375 
L 202.829402 119.527375 
L 203.504266 122.215375 
L 205.528858 122.215375 
L 206.203722 119.527375 
L 206.878586 111.463375 
L 207.55345 119.527375 
L 208.228314 114.151375 
L 208.903178 114.151375 
L 209.578042 111.463375 
L 210.252906 111.463375 
L 210.92777 106.087375 
L 211.602634 103.399375 
L 212.952362 119.527375 
L 213.627225 119.527375 
L 214.302089 111.463375 
L 214.976953 111.463375 
L 215.651817 119.527375 
L 216.326681 122.215375 
L 217.001545 119.527375 
L 217.676409 119.527375 
L 218.351273 111.463375 
L 219.026137 122.215375 
L 219.701001 114.151375 
L 220.375865 116.839375 
L 221.050729 116.839375 
L 223.075321 124.903375 
L 225.099912 116.839375 
L 225.774776 122.215375 
L 227.124504 116.839375 
L 227.799368 111.463375 
L 228.474232 119.527375 
L 229.82396 124.903375 
L 231.173688 119.527375 
L 233.19828 127.591375 
L 233.873144 135.655375 
L 234.548008 135.655375 
L 235.222872 124.903375 
L 237.247463 132.967375 
L 237.922327 130.279375 
L 238.597191 130.279375 
L 239.272055 124.903375 
L 239.946919 124.903375 
L 240.621783 127.591375 
L 241.296647 138.343375 
L 241.971511 135.655375 
L 242.646375 141.031375 
L 243.321239 132.967375 
L 243.996103 132.967375 
L 245.345831 138.343375 
L 246.020695 130.279375 
L 246.695558 132.967375 
L 247.370422 130.279375 
L 248.72015 130.279375 
L 250.069878 135.655375 
L 250.744742 127.591375 
L 251.419606 130.279375 
L 252.09447 124.903375 
L 252.769334 130.279375 
L 253.444198 132.967375 
L 254.119062 138.343375 
L 254.793926 132.967375 
L 255.46879 135.655375 
L 256.143654 141.031375 
L 256.818518 135.655375 
L 257.493382 138.343375 
L 259.517973 138.343375 
L 260.192837 141.031375 
L 261.542565 141.031375 
L 262.217429 138.343375 
L 263.567157 143.719375 
L 264.242021 143.719375 
L 264.916885 141.031375 
L 265.591749 141.031375 
L 266.266613 138.343375 
L 266.941477 149.095375 
L 269.640932 149.095375 
L 270.315796 146.407375 
L 270.99066 146.407375 
L 271.665524 151.783375 
L 273.015252 157.159375 
L 273.690116 157.159375 
L 274.36498 151.783375 
L 275.039844 151.783375 
L 275.714708 157.159375 
L 276.389572 159.847375 
L 277.064436 159.847375 
L 277.7393 162.535375 
L 278.414164 162.535375 
L 279.763891 167.911375 
L 280.438755 167.911375 
L 281.113619 170.599375 
L 283.138211 170.599375 
L 283.813075 173.287375 
L 284.487939 173.287375 
L 285.162803 175.975375 
L 287.862259 175.975375 
L 288.537123 181.351375 
L 289.211987 178.663375 
L 290.561714 178.663375 
L 291.236578 184.039375 
L 292.586306 184.039375 
L 293.26117 186.727375 
L 293.936034 186.727375 
L 294.610898 189.415375 
L 295.285762 184.039375 
L 295.960626 189.415375 
L 296.63549 186.727375 
L 297.310354 189.415375 
L 297.985218 186.727375 
L 298.660082 189.415375 
L 299.334946 189.415375 
L 300.00981 186.727375 
L 300.684674 189.415375 
L 301.359538 186.727375 
L 302.034401 189.415375 
L 302.709265 186.727375 
L 303.384129 189.415375 
L 304.058993 194.791375 
L 305.408721 194.791375 
L 306.083585 197.479375 
L 306.758449 192.103375 
L 307.433313 197.479375 
L 308.108177 194.791375 
L 308.783041 197.479375 
L 310.132769 197.479375 
L 310.807633 194.791375 
L 311.482497 197.479375 
L 312.157361 194.791375 
L 312.832224 205.543375 
L 313.507088 200.167375 
L 314.181952 205.543375 
L 314.856816 200.167375 
L 316.206544 200.167375 
L 316.881408 202.855375 
L 317.556272 202.855375 
L 318.231136 210.919375 
L 318.906 205.543375 
L 320.930592 205.543375 
L 321.605456 208.231375 
L 322.955184 208.231375 
L 323.630047 213.607375 
L 324.304911 213.607375 
L 324.979775 216.295375 
L 326.329503 216.295375 
L 327.004367 213.607375 
L 327.679231 213.607375 
L 328.354095 216.295375 
L 329.028959 210.919375 
L 329.703823 208.231375 
L 330.378687 210.919375 
L 331.053551 208.231375 
L 331.728415 208.231375 
L 332.403279 205.543375 
L 333.078143 210.919375 
L 334.427871 210.919375 
L 335.102734 208.231375 
L 335.777598 208.231375 
L 336.452462 210.919375 
L 337.127326 210.919375 
L 337.80219 208.231375 
L 339.151918 208.231375 
L 339.826782 210.919375 
L 340.501646 210.919375 
L 341.17651 208.231375 
L 341.851374 208.231375 
L 342.526238 210.919375 
L 343.201102 210.919375 
L 343.875966 208.231375 
L 344.55083 208.231375 
L 345.225694 210.919375 
L 345.900557 210.919375 
L 346.575421 208.231375 
L 347.250285 210.919375 
L 347.925149 208.231375 
L 348.600013 210.919375 
L 349.274877 210.919375 
L 349.949741 208.231375 
L 350.624605 208.231375 
L 351.299469 205.543375 
L 353.998925 184.039375 
L 354.673789 181.351375 
L 355.348653 184.039375 
L 356.023517 175.975375 
L 356.69838 173.287375 
L 357.373244 167.911375 
L 358.048108 167.911375 
L 358.722972 162.535375 
L 359.397836 167.911375 
L 360.0727 157.159375 
L 360.747564 157.159375 
L 361.422428 165.223375 
L 362.097292 154.471375 
L 364.121884 154.471375 
L 364.796748 149.095375 
L 366.146476 149.095375 
L 366.82134 141.031375 
L 367.496204 138.343375 
L 368.171067 132.967375 
L 368.845931 132.967375 
L 369.520795 135.655375 
L 370.195659 135.655375 
L 370.870523 127.591375 
L 371.545387 135.655375 
L 372.220251 135.655375 
L 372.895115 127.591375 
L 373.569979 132.967375 
L 376.944299 132.967375 
L 377.619163 124.903375 
L 378.294027 122.215375 
L 378.96889 116.839375 
L 379.643754 119.527375 
L 380.318618 108.775375 
L 380.993482 114.151375 
L 381.668346 100.711375 
L 382.34321 84.583375 
L 383.018074 84.583375 
L 383.692938 89.959375 
L 384.367802 98.023375 
L 385.042666 100.711375 
L 385.71753 98.023375 
L 386.392394 106.087375 
L 387.067258 103.399375 
L 387.742122 103.399375 
L 388.416986 106.087375 
L 389.766713 106.087375 
L 390.441577 100.711375 
L 391.116441 106.087375 
L 391.791305 100.711375 
L 392.466169 100.711375 
L 393.141033 106.087375 
L 393.815897 106.087375 
L 394.490761 111.463375 
L 395.165625 103.399375 
L 395.840489 106.087375 
L 396.515353 103.399375 
L 397.190217 111.463375 
L 397.865081 108.775375 
L 398.539945 108.775375 
L 399.214809 111.463375 
L 399.889673 108.775375 
L 400.564537 103.399375 
L 401.2394 100.711375 
L 401.914264 106.087375 
L 403.263992 100.711375 
L 403.938856 100.711375 
L 404.61372 103.399375 
L 405.288584 98.023375 
L 405.963448 98.023375 
L 406.638312 89.959375 
L 407.313176 89.959375 
L 407.98804 95.335375 
L 408.662904 89.959375 
L 409.337768 95.335375 
L 410.012632 98.023375 
L 410.687496 98.023375 
L 411.36236 92.647375 
L 412.037223 95.335375 
L 412.712087 92.647375 
L 413.386951 98.023375 
L 414.061815 95.335375 
L 414.736679 95.335375 
L 415.411543 92.647375 
L 416.086407 95.335375 
L 416.761271 89.959375 
L 417.436135 79.207375 
L 418.785863 79.207375 
L 419.460727 81.895375 
L 420.135591 79.207375 
L 420.810455 79.207375 
L 421.485319 71.143375 
L 422.160183 76.519375 
L 422.835046 76.519375 
L 423.50991 73.831375 
L 424.859638 73.831375 
L 425.534502 68.455375 
L 426.209366 60.391375 
L 426.88423 65.767375 
L 427.559094 49.639375 
L 428.908822 38.887375 
L 429.583686 38.887375 
L 430.25855 44.263375 
L 430.933414 41.575375 
L 431.608278 44.263375 
L 432.283142 36.199375 
L 432.958006 22.759375 
L 433.63287 30.823375 
L 434.307733 44.263375 
L 434.982597 41.575375 
L 435.657461 41.575375 
L 436.332325 44.263375 
L 437.007189 60.391375 
L 437.682053 57.703375 
L 438.356917 79.207375 
L 439.031781 95.335375 
L 439.706645 108.775375 
L 440.381509 119.527375 
L 441.056373 138.343375 
L 441.731237 149.095375 
L 442.406101 149.095375 
L 443.080965 146.407375 
L 443.755829 151.783375 
L 444.430693 159.847375 
L 445.105556 157.159375 
L 445.78042 165.223375 
L 446.455284 170.599375 
L 447.130148 170.599375 
L 447.805012 173.287375 
L 449.15474 173.287375 
L 449.829604 178.663375 
L 451.854196 186.727375 
L 452.52906 186.727375 
L 453.203924 189.415375 
L 453.878788 186.727375 
L 454.553652 186.727375 
L 455.228516 184.039375 
L 455.903379 189.415375 
L 456.578243 186.727375 
L 457.927971 192.103375 
L 458.602835 189.415375 
L 459.277699 194.791375 
L 459.952563 194.791375 
L 460.627427 200.167375 
L 461.302291 194.791375 
L 461.977155 197.479375 
L 463.326883 197.479375 
L 464.001747 194.791375 
L 465.351475 194.791375 
L 466.026339 197.479375 
L 467.376066 197.479375 
L 468.05093 202.855375 
L 468.725794 202.855375 
L 470.750386 194.791375 
L 471.42525 194.791375 
L 473.449842 202.855375 
L 474.124706 194.791375 
L 474.79957 197.479375 
L 475.474434 189.415375 
L 476.149298 192.103375 
L 476.824162 186.727375 
L 477.499026 192.103375 
L 478.173889 194.791375 
L 478.848753 186.727375 
L 480.198481 186.727375 
L 480.873345 184.039375 
L 482.897937 184.039375 
L 483.572801 189.415375 
L 484.247665 186.727375 
L 484.922529 181.351375 
L 485.597393 178.663375 
L 486.272257 181.351375 
L 486.947121 178.663375 
L 487.621985 178.663375 
L 488.971712 184.039375 
L 489.646576 184.039375 
L 490.32144 181.351375 
L 490.996304 181.351375 
L 491.671168 186.727375 
L 492.346032 181.351375 
L 493.020896 181.351375 
L 493.69576 178.663375 
L 494.370624 181.351375 
L 495.045488 181.351375 
L 495.720352 184.039375 
L 496.395216 184.039375 
L 497.07008 178.663375 
L 497.744944 175.975375 
L 498.419808 178.663375 
L 499.769536 178.663375 
L 500.444399 173.287375 
L 501.119263 178.663375 
L 501.794127 178.663375 
L 502.468991 173.287375 
L 504.493583 173.287375 
L 505.168447 167.911375 
L 505.843311 173.287375 
L 506.518175 170.599375 
L 507.867903 159.847375 
L 509.217631 170.599375 
L 509.892495 170.599375 
L 510.567359 167.911375 
L 511.242222 173.287375 
L 511.917086 175.975375 
L 512.59195 175.975375 
L 513.266814 178.663375 
L 513.941678 175.975375 
L 514.616542 175.975375 
L 515.291406 178.663375 
L 515.96627 175.975375 
L 518.665726 175.975375 
L 519.34059 173.287375 
L 520.015454 178.663375 
L 523.389773 178.663375 
L 524.064637 175.975375 
L 525.414365 181.351375 
L 526.089229 178.663375 
L 526.764093 181.351375 
L 527.438957 178.663375 
L 528.788685 178.663375 
L 529.463549 184.039375 
L 530.813277 178.663375 
L 531.488141 178.663375 
L 532.163005 175.975375 
L 532.837868 178.663375 
L 533.512732 175.975375 
L 534.187596 175.975375 
L 534.86246 173.287375 
L 535.537324 178.663375 
L 538.23678 178.663375 
L 539.586508 184.039375 
L 540.261372 181.351375 
L 540.936236 181.351375 
L 541.6111 178.663375 
L 542.285964 178.663375 
L 542.960828 181.351375 
L 543.635692 178.663375 
L 544.310555 184.039375 
L 545.660283 178.663375 
L 547.010011 178.663375 
L 548.359739 173.287375 
L 549.034603 175.975375 
L 549.709467 167.911375 
L 550.384331 165.223375 
L 551.059195 159.847375 
L 552.408923 154.471375 
L 553.083787 154.471375 
L 553.758651 157.159375 
L 554.433515 165.223375 
L 555.108378 175.975375 
L 555.783242 181.351375 
L 556.458106 194.791375 
L 557.13297 194.791375 
L 557.807834 192.103375 
L 558.482698 194.791375 
L 559.157562 194.791375 
L 559.832426 192.103375 
L 560.50729 194.791375 
L 561.182154 200.167375 
L 561.857018 200.167375 
L 563.206746 205.543375 
L 564.556474 205.543375 
L 565.231338 208.231375 
L 565.906201 202.855375 
L 566.581065 208.231375 
L 567.930793 208.231375 
L 568.605657 210.919375 
L 569.280521 210.919375 
L 569.955385 208.231375 
L 570.630249 210.919375 
L 572.654841 210.919375 
L 573.329705 216.295375 
L 574.004569 208.231375 
L 576.029161 216.295375 
L 576.704025 213.607375 
L 577.378888 213.607375 
L 578.053752 216.295375 
L 578.728616 213.607375 
L 579.40348 216.295375 
L 580.078344 216.295375 
L 580.753208 213.607375 
L 581.428072 216.295375 
L 582.102936 216.295375 
L 582.7778 218.983375 
L 583.452664 216.295375 
L 584.127528 216.295375 
L 584.802392 213.607375 
L 585.477256 216.295375 
L 589.526439 216.295375 
L 590.876167 221.671375 
L 591.551031 218.983375 
L 592.900759 224.359375 
L 593.575623 221.671375 
L 594.250487 216.295375 
L 594.925351 218.983375 
L 596.275079 218.983375 
L 596.949943 221.671375 
L 598.299671 216.295375 
L 599.649398 221.671375 
L 600.324262 218.983375 
L 602.348854 218.983375 
L 603.023718 216.295375 
L 603.698582 218.983375 
L 604.373446 213.607375 
L 605.04831 216.295375 
L 605.723174 216.295375 
L 607.072902 210.919375 
L 608.42263 210.919375 
L 609.097494 213.607375 
L 609.772358 210.919375 
L 611.122085 210.919375 
L 611.796949 208.231375 
L 612.471813 208.231375 
L 613.146677 205.543375 
L 613.821541 208.231375 
L 614.496405 208.231375 
L 615.171269 205.543375 
L 615.846133 197.479375 
L 616.520997 197.479375 
L 617.870725 186.727375 
L 618.545589 184.039375 
L 619.220453 186.727375 
L 619.895317 184.039375 
L 621.245044 184.039375 
L 621.919908 181.351375 
L 622.594772 167.911375 
L 623.269636 170.599375 
L 624.619364 170.599375 
L 625.294228 162.535375 
L 626.643956 167.911375 
L 628.668548 167.911375 
L 629.343412 165.223375 
L 630.018276 165.223375 
L 630.69314 159.847375 
L 631.368004 162.535375 
L 632.042867 162.535375 
L 632.717731 159.847375 
L 633.392595 159.847375 
L 634.067459 154.471375 
L 634.742323 154.471375 
L 635.417187 157.159375 
L 636.092051 162.535375 
L 636.766915 165.223375 
L 638.116643 159.847375 
L 638.791507 159.847375 
L 639.466371 157.159375 
L 640.141235 151.783375 
L 640.816099 154.471375 
L 641.490963 154.471375 
L 642.165827 157.159375 
L 642.840691 165.223375 
L 643.515554 162.535375 
L 644.190418 154.471375 
L 644.865282 151.783375 
L 645.540146 151.783375 
L 646.21501 149.095375 
L 646.889874 151.783375 
L 647.564738 151.783375 
L 648.914466 146.407375 
L 649.58933 146.407375 
L 650.264194 143.719375 
L 650.939058 143.719375 
L 652.288786 149.095375 
L 652.96365 157.159375 
L 653.638514 157.159375 
L 654.313377 162.535375 
L 654.988241 159.847375 
L 655.663105 159.847375 
L 656.337969 162.535375 
L 658.362561 162.535375 
L 659.712289 167.911375 
L 660.387153 167.911375 
L 661.062017 165.223375 
L 661.736881 159.847375 
L 662.411745 162.535375 
L 663.086609 159.847375 
L 663.761473 162.535375 
L 664.436337 162.535375 
L 665.1112 157.159375 
L 666.460928 157.159375 
L 667.810656 151.783375 
L 668.48552 151.783375 
L 669.160384 154.471375 
L 669.835248 151.783375 
L 670.510112 151.783375 
L 671.184976 146.407375 
L 671.85984 146.407375 
L 672.534704 143.719375 
L 673.209568 143.719375 
L 673.884432 138.343375 
L 674.559296 143.719375 
L 675.909024 149.095375 
L 676.583887 146.407375 
L 677.258751 146.407375 
L 677.933615 154.471375 
L 678.608479 159.847375 
L 679.283343 154.471375 
L 680.633071 154.471375 
L 681.307935 157.159375 
L 681.982799 154.471375 
L 682.657663 149.095375 
L 683.332527 157.159375 
L 684.007391 154.471375 
L 684.682255 157.159375 
L 685.357119 151.783375 
L 686.031983 149.095375 
L 686.706847 151.783375 
L 687.38171 151.783375 
L 688.056574 146.407375 
L 688.731438 157.159375 
L 689.406302 154.471375 
L 690.081166 141.031375 
L 690.75603 143.719375 
L 691.430894 143.719375 
L 692.780622 127.591375 
L 693.455486 135.655375 
L 694.13035 141.031375 
L 694.805214 138.343375 
L 695.480078 143.719375 
L 696.154942 143.719375 
L 696.829806 167.911375 
L 697.50467 175.975375 
L 698.179533 186.727375 
L 698.854397 186.727375 
L 699.529261 192.103375 
L 699.529261 192.103375 
" clip-path="url(#p08a57dc9f0)" style="fill: none; stroke: #1f77b4; stroke-width: 1.5; stroke-linecap: square"/>
   </g>
   <g id="patch_3">
    <path d="M 60.365625 234.439375 
L 60.365625 12.679375 
" style="fill: none; stroke: #000000; stroke-width: 0.8; stroke-linejoin: miter; stroke-linecap: square"/>
   </g>
   <g id="patch_4">
    <path d="M 729.965625 234.439375 
L 729.965625 12.679375 
" style="fill: none; stroke: #000000; stroke-width: 0.8; stroke-linejoin: miter; stroke-linecap: square"/>
   </g>
   <g id="patch_5">
    <path d="M 60.365625 234.439375 
L 729.965625 234.439375 
" style="fill: none; stroke: #000000; stroke-width: 0.8; stroke-linejoin: miter; stroke-linecap: square"/>
   </g>
   <g id="patch_6">
    <path d="M 60.365625 12.679375 
L 729.965625 12.679375 
" style="fill: none; stroke: #000000; stroke-width: 0.8; stroke-linejoin: miter; stroke-linecap: square"/>
   </g>
   <g id="legend_1">
    <g id="patch_7">
     <path d="M 555.148125 48.101875 
L 718.765625 48.101875 
Q 721.965625 48.101875 721.965625 44.901875 
L 721.965625 23.879375 
Q 721.965625 20.679375 718.765625 20.679375 
L 555.148125 20.679375 
Q 551.948125 20.679375 551.948125 23.879375 
L 551.948125 44.901875 
Q 551.948125 48.101875 555.148125 48.101875 
z
" style="fill: #ffffff; opacity: 0.8; stroke: #cccccc; stroke-linejoin: miter"/>
    </g>
    <g id="line2d_20">
     <path d="M 558.348125 32.679375 
L 574.348125 32.679375 
L 590.348125 32.679375 
" style="fill: none; stroke: #1f77b4; stroke-width: 1.5; stroke-linecap: square"/>
    </g>
    <g id="text_12">
     <!-- Concurrent Users -->
     <g transform="translate(603.148125 38.279375)scale(0.16 -0.16)">
      <use xlink:href="#TimesNewRomanPSMT-43"/>
      <use xlink:href="#TimesNewRomanPSMT-6f" x="66.699219"/>
      <use xlink:href="#TimesNewRomanPSMT-6e" x="116.699219"/>
      <use xlink:href="#TimesNewRomanPSMT-63" x="166.699219"/>
      <use xlink:href="#TimesNewRomanPSMT-75" x="211.083984"/>
      <use xlink:href="#TimesNewRomanPSMT-72" x="261.083984"/>
      <use xlink:href="#TimesNewRomanPSMT-72" x="294.384766"/>
      <use xlink:href="#TimesNewRomanPSMT-65" x="327.685547"/>
      <use xlink:href="#TimesNewRomanPSMT-6e" x="372.070312"/>
      <use xlink:href="#TimesNewRomanPSMT-74" x="422.070312"/>
      <use xlink:href="#TimesNewRomanPSMT-20" x="449.853516"/>
      <use xlink:href="#TimesNewRomanPSMT-55" x="474.853516"/>
      <use xlink:href="#TimesNewRomanPSMT-73" x="547.070312"/>
      <use xlink:href="#TimesNewRomanPSMT-65" x="585.986328"/>
      <use xlink:href="#TimesNewRomanPSMT-72" x="630.371094"/>
      <use xlink:href="#TimesNewRomanPSMT-73" x="663.671875"/>
     </g>
    </g>
   </g>
  </g>
 </g>
 <defs>
  <clipPath id="p08a57dc9f0">
   <rect x="60.365625" y="12.679375" width="669.6" height="221.76"/>
  </clipPath>
 </defs>
</svg>
