<?xml version="1.0" encoding="utf-8" standalone="no"?>
<!DOCTYPE svg PUBLIC "-//W3C//DTD SVG 1.1//EN"
  "http://www.w3.org/Graphics/SVG/1.1/DTD/svg11.dtd">
<svg xmlns:xlink="http://www.w3.org/1999/xlink" width="737.165625pt" height="285.3375pt" viewBox="0 0 737.165625 285.3375" xmlns="http://www.w3.org/2000/svg" version="1.1">
 <metadata>
  <rdf:RDF xmlns:dc="http://purl.org/dc/elements/1.1/" xmlns:cc="http://creativecommons.org/ns#" xmlns:rdf="http://www.w3.org/1999/02/22-rdf-syntax-ns#">
   <cc:Work>
    <dc:type rdf:resource="http://purl.org/dc/dcmitype/StillImage"/>
    <dc:date>2025-06-11T01:09:10.447991</dc:date>
    <dc:format>image/svg+xml</dc:format>
    <dc:creator>
     <cc:Agent>
      <dc:title>Matplotlib v3.5.1, https://matplotlib.org/</dc:title>
     </cc:Agent>
    </dc:creator>
   </cc:Work>
  </rdf:RDF>
 </metadata>
 <defs>
  <style type="text/css">*{stroke-linejoin: round; stroke-linecap: butt}</style>
 </defs>
 <g id="figure_1">
  <g id="patch_1">
   <path d="M 0 285.3375 
L 737.165625 285.3375 
L 737.165625 0 
L 0 0 
z
" style="fill: #ffffff"/>
  </g>
  <g id="axes_1">
   <g id="patch_2">
    <path d="M 60.365625 234.439375 
L 729.965625 234.439375 
L 729.965625 12.679375 
L 60.365625 12.679375 
z
" style="fill: #ffffff"/>
   </g>
   <g id="matplotlib.axis_1">
    <g id="xtick_1">
     <g id="line2d_1">
      <path d="M 90.124873 234.439375 
L 90.124873 12.679375 
" clip-path="url(#p23a6059574)" style="fill: none; stroke: #b0b0b0; stroke-width: 0.8; stroke-linecap: square"/>
     </g>
     <g id="line2d_2">
      <defs>
       <path id="macf9b67617" d="M 0 0 
L 0 3.5 
" style="stroke: #000000; stroke-width: 0.8"/>
      </defs>
      <g>
       <use xlink:href="#macf9b67617" x="90.124873" y="234.439375" style="stroke: #000000; stroke-width: 0.8"/>
      </g>
     </g>
     <g id="text_1">
      <!-- 0 -->
      <g transform="translate(86.124873 252.549375)scale(0.16 -0.16)">
       <defs>
        <path id="TimesNewRomanPSMT-30" d="M 231 2094 
Q 231 2819 450 3342 
Q 669 3866 1031 4122 
Q 1313 4325 1613 4325 
Q 2100 4325 2488 3828 
Q 2972 3213 2972 2159 
Q 2972 1422 2759 906 
Q 2547 391 2217 158 
Q 1888 -75 1581 -75 
Q 975 -75 572 641 
Q 231 1244 231 2094 
z
M 844 2016 
Q 844 1141 1059 588 
Q 1238 122 1591 122 
Q 1759 122 1940 273 
Q 2122 425 2216 781 
Q 2359 1319 2359 2297 
Q 2359 3022 2209 3506 
Q 2097 3866 1919 4016 
Q 1791 4119 1609 4119 
Q 1397 4119 1231 3928 
Q 1006 3669 925 3112 
Q 844 2556 844 2016 
z
" transform="scale(0.015625)"/>
       </defs>
       <use xlink:href="#TimesNewRomanPSMT-30"/>
      </g>
     </g>
    </g>
    <g id="xtick_2">
     <g id="line2d_3">
      <path d="M 225.54807 234.439375 
L 225.54807 12.679375 
" clip-path="url(#p23a6059574)" style="fill: none; stroke: #b0b0b0; stroke-width: 0.8; stroke-linecap: square"/>
     </g>
     <g id="line2d_4">
      <g>
       <use xlink:href="#macf9b67617" x="225.54807" y="234.439375" style="stroke: #000000; stroke-width: 0.8"/>
      </g>
     </g>
     <g id="text_2">
      <!-- 200 -->
      <g transform="translate(213.54807 252.549375)scale(0.16 -0.16)">
       <defs>
        <path id="TimesNewRomanPSMT-32" d="M 2934 816 
L 2638 0 
L 138 0 
L 138 116 
Q 1241 1122 1691 1759 
Q 2141 2397 2141 2925 
Q 2141 3328 1894 3587 
Q 1647 3847 1303 3847 
Q 991 3847 742 3664 
Q 494 3481 375 3128 
L 259 3128 
Q 338 3706 661 4015 
Q 984 4325 1469 4325 
Q 1984 4325 2329 3994 
Q 2675 3663 2675 3213 
Q 2675 2891 2525 2569 
Q 2294 2063 1775 1497 
Q 997 647 803 472 
L 1909 472 
Q 2247 472 2383 497 
Q 2519 522 2628 598 
Q 2738 675 2819 816 
L 2934 816 
z
" transform="scale(0.015625)"/>
       </defs>
       <use xlink:href="#TimesNewRomanPSMT-32"/>
       <use xlink:href="#TimesNewRomanPSMT-30" x="50"/>
       <use xlink:href="#TimesNewRomanPSMT-30" x="100"/>
      </g>
     </g>
    </g>
    <g id="xtick_3">
     <g id="line2d_5">
      <path d="M 360.971268 234.439375 
L 360.971268 12.679375 
" clip-path="url(#p23a6059574)" style="fill: none; stroke: #b0b0b0; stroke-width: 0.8; stroke-linecap: square"/>
     </g>
     <g id="line2d_6">
      <g>
       <use xlink:href="#macf9b67617" x="360.971268" y="234.439375" style="stroke: #000000; stroke-width: 0.8"/>
      </g>
     </g>
     <g id="text_3">
      <!-- 400 -->
      <g transform="translate(348.971268 252.549375)scale(0.16 -0.16)">
       <defs>
        <path id="TimesNewRomanPSMT-34" d="M 2978 1563 
L 2978 1119 
L 2409 1119 
L 2409 0 
L 1894 0 
L 1894 1119 
L 100 1119 
L 100 1519 
L 2066 4325 
L 2409 4325 
L 2409 1563 
L 2978 1563 
z
M 1894 1563 
L 1894 3666 
L 406 1563 
L 1894 1563 
z
" transform="scale(0.015625)"/>
       </defs>
       <use xlink:href="#TimesNewRomanPSMT-34"/>
       <use xlink:href="#TimesNewRomanPSMT-30" x="50"/>
       <use xlink:href="#TimesNewRomanPSMT-30" x="100"/>
      </g>
     </g>
    </g>
    <g id="xtick_4">
     <g id="line2d_7">
      <path d="M 496.394465 234.439375 
L 496.394465 12.679375 
" clip-path="url(#p23a6059574)" style="fill: none; stroke: #b0b0b0; stroke-width: 0.8; stroke-linecap: square"/>
     </g>
     <g id="line2d_8">
      <g>
       <use xlink:href="#macf9b67617" x="496.394465" y="234.439375" style="stroke: #000000; stroke-width: 0.8"/>
      </g>
     </g>
     <g id="text_4">
      <!-- 600 -->
      <g transform="translate(484.394465 252.549375)scale(0.16 -0.16)">
       <defs>
        <path id="TimesNewRomanPSMT-36" d="M 2869 4325 
L 2869 4209 
Q 2456 4169 2195 4045 
Q 1934 3922 1679 3669 
Q 1425 3416 1258 3105 
Q 1091 2794 978 2366 
Q 1428 2675 1881 2675 
Q 2316 2675 2634 2325 
Q 2953 1975 2953 1425 
Q 2953 894 2631 456 
Q 2244 -75 1606 -75 
Q 1172 -75 869 213 
Q 275 772 275 1663 
Q 275 2231 503 2743 
Q 731 3256 1154 3653 
Q 1578 4050 1965 4187 
Q 2353 4325 2688 4325 
L 2869 4325 
z
M 925 2138 
Q 869 1716 869 1456 
Q 869 1156 980 804 
Q 1091 453 1309 247 
Q 1469 100 1697 100 
Q 1969 100 2183 356 
Q 2397 613 2397 1088 
Q 2397 1622 2184 2012 
Q 1972 2403 1581 2403 
Q 1463 2403 1327 2353 
Q 1191 2303 925 2138 
z
" transform="scale(0.015625)"/>
       </defs>
       <use xlink:href="#TimesNewRomanPSMT-36"/>
       <use xlink:href="#TimesNewRomanPSMT-30" x="50"/>
       <use xlink:href="#TimesNewRomanPSMT-30" x="100"/>
      </g>
     </g>
    </g>
    <g id="xtick_5">
     <g id="line2d_9">
      <path d="M 631.817663 234.439375 
L 631.817663 12.679375 
" clip-path="url(#p23a6059574)" style="fill: none; stroke: #b0b0b0; stroke-width: 0.8; stroke-linecap: square"/>
     </g>
     <g id="line2d_10">
      <g>
       <use xlink:href="#macf9b67617" x="631.817663" y="234.439375" style="stroke: #000000; stroke-width: 0.8"/>
      </g>
     </g>
     <g id="text_5">
      <!-- 800 -->
      <g transform="translate(619.817663 252.549375)scale(0.16 -0.16)">
       <defs>
        <path id="TimesNewRomanPSMT-38" d="M 1228 2134 
Q 725 2547 579 2797 
Q 434 3047 434 3316 
Q 434 3728 753 4026 
Q 1072 4325 1600 4325 
Q 2113 4325 2425 4047 
Q 2738 3769 2738 3413 
Q 2738 3175 2569 2928 
Q 2400 2681 1866 2347 
Q 2416 1922 2594 1678 
Q 2831 1359 2831 1006 
Q 2831 559 2490 242 
Q 2150 -75 1597 -75 
Q 994 -75 656 303 
Q 388 606 388 966 
Q 388 1247 577 1523 
Q 766 1800 1228 2134 
z
M 1719 2469 
Q 2094 2806 2194 3001 
Q 2294 3197 2294 3444 
Q 2294 3772 2109 3958 
Q 1925 4144 1606 4144 
Q 1288 4144 1088 3959 
Q 888 3775 888 3528 
Q 888 3366 970 3203 
Q 1053 3041 1206 2894 
L 1719 2469 
z
M 1375 2016 
Q 1116 1797 991 1539 
Q 866 1281 866 981 
Q 866 578 1086 336 
Q 1306 94 1647 94 
Q 1984 94 2187 284 
Q 2391 475 2391 747 
Q 2391 972 2272 1150 
Q 2050 1481 1375 2016 
z
" transform="scale(0.015625)"/>
       </defs>
       <use xlink:href="#TimesNewRomanPSMT-38"/>
       <use xlink:href="#TimesNewRomanPSMT-30" x="50"/>
       <use xlink:href="#TimesNewRomanPSMT-30" x="100"/>
      </g>
     </g>
    </g>
    <g id="text_6">
     <!-- Time (5s) -->
     <g transform="translate(356.360938 273.859375)scale(0.2 -0.2)">
      <defs>
       <path id="TimesNewRomanPSMT-54" d="M 3703 4238 
L 3750 3244 
L 3631 3244 
Q 3597 3506 3538 3619 
Q 3441 3800 3280 3886 
Q 3119 3972 2856 3972 
L 2259 3972 
L 2259 734 
Q 2259 344 2344 247 
Q 2463 116 2709 116 
L 2856 116 
L 2856 0 
L 1059 0 
L 1059 116 
L 1209 116 
Q 1478 116 1591 278 
Q 1659 378 1659 734 
L 1659 3972 
L 1150 3972 
Q 853 3972 728 3928 
Q 566 3869 450 3700 
Q 334 3531 313 3244 
L 194 3244 
L 244 4238 
L 3703 4238 
z
" transform="scale(0.015625)"/>
       <path id="TimesNewRomanPSMT-69" d="M 928 4444 
Q 1059 4444 1151 4351 
Q 1244 4259 1244 4128 
Q 1244 3997 1151 3903 
Q 1059 3809 928 3809 
Q 797 3809 703 3903 
Q 609 3997 609 4128 
Q 609 4259 701 4351 
Q 794 4444 928 4444 
z
M 1188 2947 
L 1188 647 
Q 1188 378 1227 289 
Q 1266 200 1342 156 
Q 1419 113 1622 113 
L 1622 0 
L 231 0 
L 231 113 
Q 441 113 512 153 
Q 584 194 626 287 
Q 669 381 669 647 
L 669 1750 
Q 669 2216 641 2353 
Q 619 2453 572 2492 
Q 525 2531 444 2531 
Q 356 2531 231 2484 
L 188 2597 
L 1050 2947 
L 1188 2947 
z
" transform="scale(0.015625)"/>
       <path id="TimesNewRomanPSMT-6d" d="M 1050 2338 
Q 1363 2650 1419 2697 
Q 1559 2816 1721 2881 
Q 1884 2947 2044 2947 
Q 2313 2947 2506 2790 
Q 2700 2634 2766 2338 
Q 3088 2713 3309 2830 
Q 3531 2947 3766 2947 
Q 3994 2947 4170 2830 
Q 4347 2713 4450 2447 
Q 4519 2266 4519 1878 
L 4519 647 
Q 4519 378 4559 278 
Q 4591 209 4675 161 
Q 4759 113 4950 113 
L 4950 0 
L 3538 0 
L 3538 113 
L 3597 113 
Q 3781 113 3884 184 
Q 3956 234 3988 344 
Q 4000 397 4000 647 
L 4000 1878 
Q 4000 2228 3916 2372 
Q 3794 2572 3525 2572 
Q 3359 2572 3192 2489 
Q 3025 2406 2788 2181 
L 2781 2147 
L 2788 2013 
L 2788 647 
Q 2788 353 2820 281 
Q 2853 209 2943 161 
Q 3034 113 3253 113 
L 3253 0 
L 1806 0 
L 1806 113 
Q 2044 113 2133 169 
Q 2222 225 2256 338 
Q 2272 391 2272 647 
L 2272 1878 
Q 2272 2228 2169 2381 
Q 2031 2581 1784 2581 
Q 1616 2581 1450 2491 
Q 1191 2353 1050 2181 
L 1050 647 
Q 1050 366 1089 281 
Q 1128 197 1204 155 
Q 1281 113 1516 113 
L 1516 0 
L 100 0 
L 100 113 
Q 297 113 375 155 
Q 453 197 493 289 
Q 534 381 534 647 
L 534 1741 
Q 534 2213 506 2350 
Q 484 2453 437 2492 
Q 391 2531 309 2531 
Q 222 2531 100 2484 
L 53 2597 
L 916 2947 
L 1050 2947 
L 1050 2338 
z
" transform="scale(0.015625)"/>
       <path id="TimesNewRomanPSMT-65" d="M 681 1784 
Q 678 1147 991 784 
Q 1303 422 1725 422 
Q 2006 422 2214 576 
Q 2422 731 2563 1106 
L 2659 1044 
Q 2594 616 2278 264 
Q 1963 -88 1488 -88 
Q 972 -88 605 314 
Q 238 716 238 1394 
Q 238 2128 614 2539 
Q 991 2950 1559 2950 
Q 2041 2950 2350 2633 
Q 2659 2316 2659 1784 
L 681 1784 
z
M 681 1966 
L 2006 1966 
Q 1991 2241 1941 2353 
Q 1863 2528 1708 2628 
Q 1553 2728 1384 2728 
Q 1125 2728 920 2526 
Q 716 2325 681 1966 
z
" transform="scale(0.015625)"/>
       <path id="TimesNewRomanPSMT-20" transform="scale(0.015625)"/>
       <path id="TimesNewRomanPSMT-28" d="M 1988 -1253 
L 1988 -1369 
Q 1516 -1131 1200 -813 
Q 750 -359 506 256 
Q 263 872 263 1534 
Q 263 2503 741 3301 
Q 1219 4100 1988 4444 
L 1988 4313 
Q 1603 4100 1356 3731 
Q 1109 3363 987 2797 
Q 866 2231 866 1616 
Q 866 947 969 400 
Q 1050 -31 1165 -292 
Q 1281 -553 1476 -793 
Q 1672 -1034 1988 -1253 
z
" transform="scale(0.015625)"/>
       <path id="TimesNewRomanPSMT-35" d="M 2778 4238 
L 2534 3706 
L 1259 3706 
L 981 3138 
Q 1809 3016 2294 2522 
Q 2709 2097 2709 1522 
Q 2709 1188 2573 903 
Q 2438 619 2231 419 
Q 2025 219 1772 97 
Q 1413 -75 1034 -75 
Q 653 -75 479 54 
Q 306 184 306 341 
Q 306 428 378 495 
Q 450 563 559 563 
Q 641 563 702 538 
Q 763 513 909 409 
Q 1144 247 1384 247 
Q 1750 247 2026 523 
Q 2303 800 2303 1197 
Q 2303 1581 2056 1914 
Q 1809 2247 1375 2428 
Q 1034 2569 447 2591 
L 1259 4238 
L 2778 4238 
z
" transform="scale(0.015625)"/>
       <path id="TimesNewRomanPSMT-73" d="M 2050 2947 
L 2050 1972 
L 1947 1972 
Q 1828 2431 1642 2597 
Q 1456 2763 1169 2763 
Q 950 2763 815 2647 
Q 681 2531 681 2391 
Q 681 2216 781 2091 
Q 878 1963 1175 1819 
L 1631 1597 
Q 2266 1288 2266 781 
Q 2266 391 1970 151 
Q 1675 -88 1309 -88 
Q 1047 -88 709 6 
Q 606 38 541 38 
Q 469 38 428 -44 
L 325 -44 
L 325 978 
L 428 978 
Q 516 541 762 319 
Q 1009 97 1316 97 
Q 1531 97 1667 223 
Q 1803 350 1803 528 
Q 1803 744 1651 891 
Q 1500 1038 1047 1263 
Q 594 1488 453 1669 
Q 313 1847 313 2119 
Q 313 2472 555 2709 
Q 797 2947 1181 2947 
Q 1350 2947 1591 2875 
Q 1750 2828 1803 2828 
Q 1853 2828 1881 2850 
Q 1909 2872 1947 2947 
L 2050 2947 
z
" transform="scale(0.015625)"/>
       <path id="TimesNewRomanPSMT-29" d="M 144 4313 
L 144 4444 
Q 619 4209 934 3891 
Q 1381 3434 1625 2820 
Q 1869 2206 1869 1541 
Q 1869 572 1392 -226 
Q 916 -1025 144 -1369 
L 144 -1253 
Q 528 -1038 776 -670 
Q 1025 -303 1145 264 
Q 1266 831 1266 1447 
Q 1266 2113 1163 2663 
Q 1084 3094 967 3353 
Q 850 3613 656 3853 
Q 463 4094 144 4313 
z
" transform="scale(0.015625)"/>
      </defs>
      <use xlink:href="#TimesNewRomanPSMT-54"/>
      <use xlink:href="#TimesNewRomanPSMT-69" x="57.583984"/>
      <use xlink:href="#TimesNewRomanPSMT-6d" x="85.367188"/>
      <use xlink:href="#TimesNewRomanPSMT-65" x="163.150391"/>
      <use xlink:href="#TimesNewRomanPSMT-20" x="207.535156"/>
      <use xlink:href="#TimesNewRomanPSMT-28" x="232.535156"/>
      <use xlink:href="#TimesNewRomanPSMT-35" x="265.835938"/>
      <use xlink:href="#TimesNewRomanPSMT-73" x="315.835938"/>
      <use xlink:href="#TimesNewRomanPSMT-29" x="354.751953"/>
     </g>
    </g>
   </g>
   <g id="matplotlib.axis_2">
    <g id="ytick_1">
     <g id="line2d_11">
      <path d="M 60.365625 224.359375 
L 729.965625 224.359375 
" clip-path="url(#p23a6059574)" style="fill: none; stroke: #b0b0b0; stroke-width: 0.8; stroke-linecap: square"/>
     </g>
     <g id="line2d_12">
      <defs>
       <path id="m69b50d01c2" d="M 0 0 
L -3.5 0 
" style="stroke: #000000; stroke-width: 0.8"/>
      </defs>
      <g>
       <use xlink:href="#m69b50d01c2" x="60.365625" y="224.359375" style="stroke: #000000; stroke-width: 0.8"/>
      </g>
     </g>
     <g id="text_7">
      <!-- 0 -->
      <g transform="translate(45.365625 229.914375)scale(0.16 -0.16)">
       <use xlink:href="#TimesNewRomanPSMT-30"/>
      </g>
     </g>
    </g>
    <g id="ytick_2">
     <g id="line2d_13">
      <path d="M 60.365625 183.216518 
L 729.965625 183.216518 
" clip-path="url(#p23a6059574)" style="fill: none; stroke: #b0b0b0; stroke-width: 0.8; stroke-linecap: square"/>
     </g>
     <g id="line2d_14">
      <g>
       <use xlink:href="#m69b50d01c2" x="60.365625" y="183.216518" style="stroke: #000000; stroke-width: 0.8"/>
      </g>
     </g>
     <g id="text_8">
      <!-- 20 -->
      <g transform="translate(37.365625 188.771518)scale(0.16 -0.16)">
       <use xlink:href="#TimesNewRomanPSMT-32"/>
       <use xlink:href="#TimesNewRomanPSMT-30" x="50"/>
      </g>
     </g>
    </g>
    <g id="ytick_3">
     <g id="line2d_15">
      <path d="M 60.365625 142.073661 
L 729.965625 142.073661 
" clip-path="url(#p23a6059574)" style="fill: none; stroke: #b0b0b0; stroke-width: 0.8; stroke-linecap: square"/>
     </g>
     <g id="line2d_16">
      <g>
       <use xlink:href="#m69b50d01c2" x="60.365625" y="142.073661" style="stroke: #000000; stroke-width: 0.8"/>
      </g>
     </g>
     <g id="text_9">
      <!-- 40 -->
      <g transform="translate(37.365625 147.628661)scale(0.16 -0.16)">
       <use xlink:href="#TimesNewRomanPSMT-34"/>
       <use xlink:href="#TimesNewRomanPSMT-30" x="50"/>
      </g>
     </g>
    </g>
    <g id="ytick_4">
     <g id="line2d_17">
      <path d="M 60.365625 100.930804 
L 729.965625 100.930804 
" clip-path="url(#p23a6059574)" style="fill: none; stroke: #b0b0b0; stroke-width: 0.8; stroke-linecap: square"/>
     </g>
     <g id="line2d_18">
      <g>
       <use xlink:href="#m69b50d01c2" x="60.365625" y="100.930804" style="stroke: #000000; stroke-width: 0.8"/>
      </g>
     </g>
     <g id="text_10">
      <!-- 60 -->
      <g transform="translate(37.365625 106.485804)scale(0.16 -0.16)">
       <use xlink:href="#TimesNewRomanPSMT-36"/>
       <use xlink:href="#TimesNewRomanPSMT-30" x="50"/>
      </g>
     </g>
    </g>
    <g id="ytick_5">
     <g id="line2d_19">
      <path d="M 60.365625 59.787946 
L 729.965625 59.787946 
" clip-path="url(#p23a6059574)" style="fill: none; stroke: #b0b0b0; stroke-width: 0.8; stroke-linecap: square"/>
     </g>
     <g id="line2d_20">
      <g>
       <use xlink:href="#m69b50d01c2" x="60.365625" y="59.787946" style="stroke: #000000; stroke-width: 0.8"/>
      </g>
     </g>
     <g id="text_11">
      <!-- 80 -->
      <g transform="translate(37.365625 65.342946)scale(0.16 -0.16)">
       <use xlink:href="#TimesNewRomanPSMT-38"/>
       <use xlink:href="#TimesNewRomanPSMT-30" x="50"/>
      </g>
     </g>
    </g>
    <g id="ytick_6">
     <g id="line2d_21">
      <path d="M 60.365625 18.645089 
L 729.965625 18.645089 
" clip-path="url(#p23a6059574)" style="fill: none; stroke: #b0b0b0; stroke-width: 0.8; stroke-linecap: square"/>
     </g>
     <g id="line2d_22">
      <g>
       <use xlink:href="#m69b50d01c2" x="60.365625" y="18.645089" style="stroke: #000000; stroke-width: 0.8"/>
      </g>
     </g>
     <g id="text_12">
      <!-- 100 -->
      <g transform="translate(29.365625 24.200089)scale(0.16 -0.16)">
       <defs>
        <path id="TimesNewRomanPSMT-31" d="M 750 3822 
L 1781 4325 
L 1884 4325 
L 1884 747 
Q 1884 391 1914 303 
Q 1944 216 2037 169 
Q 2131 122 2419 116 
L 2419 0 
L 825 0 
L 825 116 
Q 1125 122 1212 167 
Q 1300 213 1334 289 
Q 1369 366 1369 747 
L 1369 3034 
Q 1369 3497 1338 3628 
Q 1316 3728 1258 3775 
Q 1200 3822 1119 3822 
Q 1003 3822 797 3725 
L 750 3822 
z
" transform="scale(0.015625)"/>
       </defs>
       <use xlink:href="#TimesNewRomanPSMT-31"/>
       <use xlink:href="#TimesNewRomanPSMT-30" x="50"/>
       <use xlink:href="#TimesNewRomanPSMT-30" x="100"/>
      </g>
     </g>
    </g>
    <g id="text_13">
     <!-- Number of Concurrent Users -->
     <g transform="translate(21.0875 239.91875)rotate(-90)scale(0.2 -0.2)">
      <defs>
       <path id="TimesNewRomanPSMT-4e" d="M -84 4238 
L 1066 4238 
L 3656 1059 
L 3656 3503 
Q 3656 3894 3569 3991 
Q 3453 4122 3203 4122 
L 3056 4122 
L 3056 4238 
L 4531 4238 
L 4531 4122 
L 4381 4122 
Q 4113 4122 4000 3959 
Q 3931 3859 3931 3503 
L 3931 -69 
L 3819 -69 
L 1025 3344 
L 1025 734 
Q 1025 344 1109 247 
Q 1228 116 1475 116 
L 1625 116 
L 1625 0 
L 150 0 
L 150 116 
L 297 116 
Q 569 116 681 278 
Q 750 378 750 734 
L 750 3681 
Q 566 3897 470 3965 
Q 375 4034 191 4094 
Q 100 4122 -84 4122 
L -84 4238 
z
" transform="scale(0.015625)"/>
       <path id="TimesNewRomanPSMT-75" d="M 2709 2863 
L 2709 1128 
Q 2709 631 2732 520 
Q 2756 409 2807 365 
Q 2859 322 2928 322 
Q 3025 322 3147 375 
L 3191 266 
L 2334 -88 
L 2194 -88 
L 2194 519 
Q 1825 119 1631 15 
Q 1438 -88 1222 -88 
Q 981 -88 804 51 
Q 628 191 559 409 
Q 491 628 491 1028 
L 491 2306 
Q 491 2509 447 2587 
Q 403 2666 317 2708 
Q 231 2750 6 2747 
L 6 2863 
L 1009 2863 
L 1009 947 
Q 1009 547 1148 422 
Q 1288 297 1484 297 
Q 1619 297 1789 381 
Q 1959 466 2194 703 
L 2194 2325 
Q 2194 2569 2105 2655 
Q 2016 2741 1734 2747 
L 1734 2863 
L 2709 2863 
z
" transform="scale(0.015625)"/>
       <path id="TimesNewRomanPSMT-62" d="M 984 2369 
Q 1400 2947 1881 2947 
Q 2322 2947 2650 2570 
Q 2978 2194 2978 1541 
Q 2978 778 2472 313 
Q 2038 -88 1503 -88 
Q 1253 -88 995 3 
Q 738 94 469 275 
L 469 3241 
Q 469 3728 445 3840 
Q 422 3953 372 3993 
Q 322 4034 247 4034 
Q 159 4034 28 3984 
L -16 4094 
L 844 4444 
L 984 4444 
L 984 2369 
z
M 984 2169 
L 984 456 
Q 1144 300 1314 220 
Q 1484 141 1663 141 
Q 1947 141 2192 453 
Q 2438 766 2438 1363 
Q 2438 1913 2192 2208 
Q 1947 2503 1634 2503 
Q 1469 2503 1303 2419 
Q 1178 2356 984 2169 
z
" transform="scale(0.015625)"/>
       <path id="TimesNewRomanPSMT-72" d="M 1038 2947 
L 1038 2303 
Q 1397 2947 1775 2947 
Q 1947 2947 2059 2842 
Q 2172 2738 2172 2600 
Q 2172 2478 2090 2393 
Q 2009 2309 1897 2309 
Q 1788 2309 1652 2417 
Q 1516 2525 1450 2525 
Q 1394 2525 1328 2463 
Q 1188 2334 1038 2041 
L 1038 669 
Q 1038 431 1097 309 
Q 1138 225 1241 169 
Q 1344 113 1538 113 
L 1538 0 
L 72 0 
L 72 113 
Q 291 113 397 181 
Q 475 231 506 341 
Q 522 394 522 644 
L 522 1753 
Q 522 2253 501 2348 
Q 481 2444 426 2487 
Q 372 2531 291 2531 
Q 194 2531 72 2484 
L 41 2597 
L 906 2947 
L 1038 2947 
z
" transform="scale(0.015625)"/>
       <path id="TimesNewRomanPSMT-6f" d="M 1600 2947 
Q 2250 2947 2644 2453 
Q 2978 2031 2978 1484 
Q 2978 1100 2793 706 
Q 2609 313 2286 112 
Q 1963 -88 1566 -88 
Q 919 -88 538 428 
Q 216 863 216 1403 
Q 216 1797 411 2186 
Q 606 2575 925 2761 
Q 1244 2947 1600 2947 
z
M 1503 2744 
Q 1338 2744 1170 2645 
Q 1003 2547 900 2300 
Q 797 2053 797 1666 
Q 797 1041 1045 587 
Q 1294 134 1700 134 
Q 2003 134 2200 384 
Q 2397 634 2397 1244 
Q 2397 2006 2069 2444 
Q 1847 2744 1503 2744 
z
" transform="scale(0.015625)"/>
       <path id="TimesNewRomanPSMT-66" d="M 1319 2638 
L 1319 756 
Q 1319 356 1406 250 
Q 1522 113 1716 113 
L 1975 113 
L 1975 0 
L 266 0 
L 266 113 
L 394 113 
Q 519 113 622 175 
Q 725 238 764 344 
Q 803 450 803 756 
L 803 2638 
L 247 2638 
L 247 2863 
L 803 2863 
L 803 3050 
Q 803 3478 940 3775 
Q 1078 4072 1361 4255 
Q 1644 4438 1997 4438 
Q 2325 4438 2600 4225 
Q 2781 4084 2781 3909 
Q 2781 3816 2700 3733 
Q 2619 3650 2525 3650 
Q 2453 3650 2373 3701 
Q 2294 3753 2178 3923 
Q 2063 4094 1966 4153 
Q 1869 4213 1750 4213 
Q 1606 4213 1506 4136 
Q 1406 4059 1362 3898 
Q 1319 3738 1319 3069 
L 1319 2863 
L 2056 2863 
L 2056 2638 
L 1319 2638 
z
" transform="scale(0.015625)"/>
       <path id="TimesNewRomanPSMT-43" d="M 3853 4334 
L 3950 2894 
L 3853 2894 
Q 3659 3541 3300 3825 
Q 2941 4109 2438 4109 
Q 2016 4109 1675 3895 
Q 1334 3681 1139 3212 
Q 944 2744 944 2047 
Q 944 1472 1128 1050 
Q 1313 628 1683 403 
Q 2053 178 2528 178 
Q 2941 178 3256 354 
Q 3572 531 3950 1056 
L 4047 994 
Q 3728 428 3303 165 
Q 2878 -97 2294 -97 
Q 1241 -97 663 684 
Q 231 1266 231 2053 
Q 231 2688 515 3219 
Q 800 3750 1298 4042 
Q 1797 4334 2388 4334 
Q 2847 4334 3294 4109 
Q 3425 4041 3481 4041 
Q 3566 4041 3628 4100 
Q 3709 4184 3744 4334 
L 3853 4334 
z
" transform="scale(0.015625)"/>
       <path id="TimesNewRomanPSMT-6e" d="M 1034 2341 
Q 1538 2947 1994 2947 
Q 2228 2947 2397 2830 
Q 2566 2713 2666 2444 
Q 2734 2256 2734 1869 
L 2734 647 
Q 2734 375 2778 278 
Q 2813 200 2889 156 
Q 2966 113 3172 113 
L 3172 0 
L 1756 0 
L 1756 113 
L 1816 113 
Q 2016 113 2095 173 
Q 2175 234 2206 353 
Q 2219 400 2219 647 
L 2219 1819 
Q 2219 2209 2117 2386 
Q 2016 2563 1775 2563 
Q 1403 2563 1034 2156 
L 1034 647 
Q 1034 356 1069 288 
Q 1113 197 1189 155 
Q 1266 113 1500 113 
L 1500 0 
L 84 0 
L 84 113 
L 147 113 
Q 366 113 442 223 
Q 519 334 519 647 
L 519 1709 
Q 519 2225 495 2337 
Q 472 2450 423 2490 
Q 375 2531 294 2531 
Q 206 2531 84 2484 
L 38 2597 
L 900 2947 
L 1034 2947 
L 1034 2341 
z
" transform="scale(0.015625)"/>
       <path id="TimesNewRomanPSMT-63" d="M 2631 1088 
Q 2516 522 2178 217 
Q 1841 -88 1431 -88 
Q 944 -88 581 321 
Q 219 731 219 1428 
Q 219 2103 620 2525 
Q 1022 2947 1584 2947 
Q 2006 2947 2278 2723 
Q 2550 2500 2550 2259 
Q 2550 2141 2473 2067 
Q 2397 1994 2259 1994 
Q 2075 1994 1981 2113 
Q 1928 2178 1911 2362 
Q 1894 2547 1784 2644 
Q 1675 2738 1481 2738 
Q 1169 2738 978 2506 
Q 725 2200 725 1697 
Q 725 1184 976 792 
Q 1228 400 1656 400 
Q 1963 400 2206 609 
Q 2378 753 2541 1131 
L 2631 1088 
z
" transform="scale(0.015625)"/>
       <path id="TimesNewRomanPSMT-74" d="M 1031 3803 
L 1031 2863 
L 1700 2863 
L 1700 2644 
L 1031 2644 
L 1031 788 
Q 1031 509 1111 412 
Q 1191 316 1316 316 
Q 1419 316 1516 380 
Q 1613 444 1666 569 
L 1788 569 
Q 1678 263 1478 108 
Q 1278 -47 1066 -47 
Q 922 -47 784 33 
Q 647 113 581 261 
Q 516 409 516 719 
L 516 2644 
L 63 2644 
L 63 2747 
Q 234 2816 414 2980 
Q 594 3144 734 3369 
Q 806 3488 934 3803 
L 1031 3803 
z
" transform="scale(0.015625)"/>
       <path id="TimesNewRomanPSMT-55" d="M 3053 4122 
L 3053 4238 
L 4553 4238 
L 4553 4122 
L 4394 4122 
Q 4144 4122 4009 3913 
Q 3944 3816 3944 3463 
L 3944 1744 
Q 3944 1106 3817 754 
Q 3691 403 3320 151 
Q 2950 -100 2313 -100 
Q 1619 -100 1259 140 
Q 900 381 750 788 
Q 650 1066 650 1831 
L 650 3488 
Q 650 3878 542 4000 
Q 434 4122 194 4122 
L 34 4122 
L 34 4238 
L 1866 4238 
L 1866 4122 
L 1703 4122 
Q 1441 4122 1328 3956 
Q 1250 3844 1250 3488 
L 1250 1641 
Q 1250 1394 1295 1075 
Q 1341 756 1459 578 
Q 1578 400 1801 284 
Q 2025 169 2350 169 
Q 2766 169 3094 350 
Q 3422 531 3542 814 
Q 3663 1097 3663 1772 
L 3663 3488 
Q 3663 3884 3575 3984 
Q 3453 4122 3213 4122 
L 3053 4122 
z
" transform="scale(0.015625)"/>
      </defs>
      <use xlink:href="#TimesNewRomanPSMT-4e"/>
      <use xlink:href="#TimesNewRomanPSMT-75" x="72.216797"/>
      <use xlink:href="#TimesNewRomanPSMT-6d" x="122.216797"/>
      <use xlink:href="#TimesNewRomanPSMT-62" x="200"/>
      <use xlink:href="#TimesNewRomanPSMT-65" x="250"/>
      <use xlink:href="#TimesNewRomanPSMT-72" x="294.384766"/>
      <use xlink:href="#TimesNewRomanPSMT-20" x="327.685547"/>
      <use xlink:href="#TimesNewRomanPSMT-6f" x="352.685547"/>
      <use xlink:href="#TimesNewRomanPSMT-66" x="402.685547"/>
      <use xlink:href="#TimesNewRomanPSMT-20" x="435.986328"/>
      <use xlink:href="#TimesNewRomanPSMT-43" x="460.986328"/>
      <use xlink:href="#TimesNewRomanPSMT-6f" x="527.685547"/>
      <use xlink:href="#TimesNewRomanPSMT-6e" x="577.685547"/>
      <use xlink:href="#TimesNewRomanPSMT-63" x="627.685547"/>
      <use xlink:href="#TimesNewRomanPSMT-75" x="672.070312"/>
      <use xlink:href="#TimesNewRomanPSMT-72" x="722.070312"/>
      <use xlink:href="#TimesNewRomanPSMT-72" x="755.371094"/>
      <use xlink:href="#TimesNewRomanPSMT-65" x="788.671875"/>
      <use xlink:href="#TimesNewRomanPSMT-6e" x="833.056641"/>
      <use xlink:href="#TimesNewRomanPSMT-74" x="883.056641"/>
      <use xlink:href="#TimesNewRomanPSMT-20" x="910.839844"/>
      <use xlink:href="#TimesNewRomanPSMT-55" x="935.839844"/>
      <use xlink:href="#TimesNewRomanPSMT-73" x="1008.056641"/>
      <use xlink:href="#TimesNewRomanPSMT-65" x="1046.972656"/>
      <use xlink:href="#TimesNewRomanPSMT-72" x="1091.357422"/>
      <use xlink:href="#TimesNewRomanPSMT-73" x="1124.658203"/>
     </g>
    </g>
   </g>
   <g id="line2d_23">
    <path d="M 90.801989 137.959375 
L 91.479105 96.816518 
L 92.156221 105.045089 
L 92.833337 82.416518 
L 93.510453 80.359375 
L 94.187569 111.216518 
L 94.864685 117.387946 
L 95.541801 84.473661 
L 96.218917 123.559375 
L 96.896033 135.902232 
L 97.573149 117.387946 
L 98.250264 80.359375 
L 99.604496 133.845089 
L 100.281612 183.216518 
L 100.958728 214.073661 
L 101.635844 53.616518 
L 102.31296 119.445089 
L 102.990076 94.759375 
L 103.667192 59.787946 
L 104.344308 59.787946 
L 105.021424 88.587946 
L 105.69854 102.987946 
L 106.375656 100.930804 
L 107.052772 113.273661 
L 107.729888 96.816518 
L 108.407004 72.130804 
L 109.08412 43.330804 
L 109.761236 84.473661 
L 110.438352 115.330804 
L 111.115468 92.702232 
L 111.792584 123.559375 
L 112.4697 88.587946 
L 113.146816 84.473661 
L 113.823932 61.845089 
L 114.501048 86.530804 
L 115.178164 100.930804 
L 115.85528 84.473661 
L 116.532396 49.502232 
L 117.209512 61.845089 
L 117.886628 96.816518 
L 118.563744 72.130804 
L 119.24086 90.645089 
L 119.917976 90.645089 
L 120.595092 115.330804 
L 121.272208 133.845089 
L 121.949324 123.559375 
L 122.62644 179.102232 
L 123.303556 133.845089 
L 123.980672 129.730804 
L 124.657788 98.873661 
L 125.334904 82.416518 
L 126.01202 100.930804 
L 126.689136 96.816518 
L 127.366252 109.159375 
L 128.043368 70.073661 
L 128.720484 100.930804 
L 129.3976 92.702232 
L 130.751832 146.187946 
L 131.428948 113.273661 
L 132.106064 148.245089 
L 132.78318 125.616518 
L 133.460296 162.645089 
L 134.137412 78.302232 
L 134.814528 113.273661 
L 135.491644 100.930804 
L 136.16876 148.245089 
L 136.845876 137.959375 
L 137.522992 113.273661 
L 138.200108 100.930804 
L 138.877224 102.987946 
L 139.55434 129.730804 
L 140.231456 111.216518 
L 140.908572 148.245089 
L 141.585688 109.159375 
L 142.262804 127.673661 
L 142.93992 150.302232 
L 143.617036 131.787946 
L 144.294152 164.702232 
L 144.971268 129.730804 
L 145.648384 123.559375 
L 146.3255 102.987946 
L 147.002616 109.159375 
L 147.679732 105.045089 
L 148.356848 98.873661 
L 149.033964 135.902232 
L 149.71108 166.759375 
L 150.388196 150.302232 
L 151.065312 164.702232 
L 151.742428 111.216518 
L 152.419543 102.987946 
L 153.096659 117.387946 
L 153.773775 152.359375 
L 154.450891 156.473661 
L 155.128007 92.702232 
L 155.805123 94.759375 
L 156.482239 113.273661 
L 157.159355 125.616518 
L 157.836471 135.902232 
L 158.513587 113.273661 
L 159.190703 80.359375 
L 159.867819 96.816518 
L 160.544935 94.759375 
L 161.222051 76.245089 
L 161.899167 121.502232 
L 162.576283 152.359375 
L 163.930515 92.702232 
L 164.607631 127.673661 
L 165.284747 148.245089 
L 165.961863 111.216518 
L 166.638979 117.387946 
L 167.316095 121.502232 
L 167.993211 119.445089 
L 168.670327 113.273661 
L 169.347443 105.045089 
L 170.024559 115.330804 
L 170.701675 150.302232 
L 171.378791 127.673661 
L 172.055907 129.730804 
L 172.733023 92.702232 
L 173.410139 121.502232 
L 174.087255 131.787946 
L 174.764371 119.445089 
L 175.441487 123.559375 
L 176.118603 177.045089 
L 176.795719 109.159375 
L 177.472835 123.559375 
L 178.149951 144.130804 
L 178.827067 129.730804 
L 179.504183 146.187946 
L 180.181299 113.273661 
L 180.858415 158.530804 
L 181.535531 111.216518 
L 182.212647 125.616518 
L 182.889763 133.845089 
L 184.243995 195.559375 
L 184.921111 156.473661 
L 185.598227 177.045089 
L 186.275343 183.216518 
L 186.952459 154.416518 
L 187.629575 88.587946 
L 188.306691 150.302232 
L 188.983807 121.502232 
L 189.660923 131.787946 
L 190.338039 168.816518 
L 191.015155 150.302232 
L 191.692271 156.473661 
L 192.369387 170.873661 
L 193.046503 164.702232 
L 193.723619 127.673661 
L 194.400735 170.873661 
L 195.077851 174.987946 
L 195.754967 125.616518 
L 196.432083 162.645089 
L 197.109199 164.702232 
L 197.786315 152.359375 
L 198.463431 148.245089 
L 199.140547 150.302232 
L 199.817663 154.416518 
L 200.494779 125.616518 
L 201.171895 152.359375 
L 201.849011 125.616518 
L 202.526127 168.816518 
L 203.203243 160.587946 
L 203.880359 162.645089 
L 204.557475 170.873661 
L 205.234591 183.216518 
L 205.911707 170.873661 
L 206.588822 162.645089 
L 207.265938 177.045089 
L 207.943054 109.159375 
L 208.62017 168.816518 
L 209.297286 150.302232 
L 209.974402 119.445089 
L 210.651518 137.959375 
L 211.328634 152.359375 
L 212.00575 144.130804 
L 212.682866 181.159375 
L 213.359982 164.702232 
L 214.037098 168.816518 
L 214.714214 174.987946 
L 215.39133 154.416518 
L 216.068446 129.730804 
L 216.745562 140.016518 
L 217.422678 152.359375 
L 218.099794 123.559375 
L 218.77691 146.187946 
L 219.454026 142.073661 
L 220.131142 133.845089 
L 220.808258 164.702232 
L 221.485374 172.930804 
L 222.16249 183.216518 
L 222.839606 164.702232 
L 223.516722 160.587946 
L 224.193838 168.816518 
L 224.870954 156.473661 
L 225.54807 179.102232 
L 226.225186 193.502232 
L 226.902302 195.559375 
L 227.579418 195.559375 
L 228.256534 152.359375 
L 228.93365 148.245089 
L 229.610766 102.987946 
L 230.287882 158.530804 
L 230.964998 179.102232 
L 231.642114 179.102232 
L 232.31923 168.816518 
L 232.996346 137.959375 
L 233.673462 158.530804 
L 234.350578 183.216518 
L 235.70481 170.873661 
L 236.381926 174.987946 
L 237.059042 185.273661 
L 237.736158 160.587946 
L 238.413274 203.787946 
L 239.767506 146.187946 
L 240.444622 164.702232 
L 241.121738 179.102232 
L 241.798854 152.359375 
L 242.47597 170.873661 
L 243.153086 172.930804 
L 243.830202 150.302232 
L 244.507318 144.130804 
L 245.184434 195.559375 
L 245.86155 181.159375 
L 246.538666 185.273661 
L 247.215782 197.616518 
L 247.892898 156.473661 
L 248.570014 189.387946 
L 249.24713 185.273661 
L 249.924246 199.673661 
L 250.601362 162.645089 
L 251.955594 133.845089 
L 252.63271 135.902232 
L 253.309826 135.902232 
L 253.986942 164.702232 
L 254.664058 174.987946 
L 255.341174 191.445089 
L 256.01829 162.645089 
L 256.695406 203.787946 
L 257.372522 172.930804 
L 258.049638 168.816518 
L 258.726754 193.502232 
L 259.40387 189.387946 
L 260.080986 117.387946 
L 260.758101 160.587946 
L 261.435217 179.102232 
L 262.112333 174.987946 
L 262.789449 135.902232 
L 263.466565 183.216518 
L 264.820797 174.987946 
L 265.497913 197.616518 
L 266.175029 187.330804 
L 266.852145 166.759375 
L 267.529261 156.473661 
L 268.883493 177.045089 
L 269.560609 179.102232 
L 270.237725 174.987946 
L 270.914841 212.016518 
L 271.591957 193.502232 
L 272.269073 193.502232 
L 273.623305 177.045089 
L 274.300421 148.245089 
L 274.977537 154.416518 
L 275.654653 148.245089 
L 276.331769 158.530804 
L 277.008885 177.045089 
L 278.363117 146.187946 
L 279.040233 181.159375 
L 279.717349 172.930804 
L 280.394465 179.102232 
L 281.071581 197.616518 
L 281.748697 207.902232 
L 282.425813 150.302232 
L 283.102929 170.873661 
L 283.780045 162.645089 
L 284.457161 187.330804 
L 285.134277 193.502232 
L 285.811393 203.787946 
L 286.488509 160.587946 
L 287.165625 193.502232 
L 287.842741 170.873661 
L 288.519857 181.159375 
L 289.196973 199.673661 
L 289.874089 158.530804 
L 291.228321 185.273661 
L 291.905437 172.930804 
L 292.582553 144.130804 
L 293.259669 156.473661 
L 294.613901 187.330804 
L 295.291017 179.102232 
L 295.968133 162.645089 
L 296.645249 199.673661 
L 297.322365 170.873661 
L 297.999481 193.502232 
L 298.676597 201.730804 
L 299.353713 205.845089 
L 300.030829 183.216518 
L 300.707945 214.073661 
L 301.385061 183.216518 
L 302.062177 191.445089 
L 302.739293 162.645089 
L 303.416409 183.216518 
L 304.093525 209.959375 
L 304.770641 185.273661 
L 306.124873 193.502232 
L 306.801989 179.102232 
L 307.479105 199.673661 
L 308.156221 183.216518 
L 308.833337 183.216518 
L 309.510453 154.416518 
L 310.187569 164.702232 
L 310.864685 142.073661 
L 311.541801 166.759375 
L 312.218917 156.473661 
L 312.896033 174.987946 
L 313.573149 201.730804 
L 314.250264 203.787946 
L 314.92738 164.702232 
L 315.604496 170.873661 
L 316.281612 168.816518 
L 316.958728 193.502232 
L 317.635844 160.587946 
L 318.31296 191.445089 
L 318.990076 199.673661 
L 319.667192 189.387946 
L 320.344308 172.930804 
L 321.021424 177.045089 
L 321.69854 170.873661 
L 322.375656 187.330804 
L 323.052772 146.187946 
L 323.729888 177.045089 
L 324.407004 156.473661 
L 325.08412 140.016518 
L 325.761236 168.816518 
L 326.438352 185.273661 
L 327.792584 150.302232 
L 328.4697 164.702232 
L 329.146816 201.730804 
L 329.823932 199.673661 
L 330.501048 185.273661 
L 331.178164 187.330804 
L 331.85528 170.873661 
L 332.532396 160.587946 
L 333.209512 154.416518 
L 333.886628 164.702232 
L 334.563744 191.445089 
L 335.24086 177.045089 
L 335.917976 150.302232 
L 337.272208 177.045089 
L 337.949324 185.273661 
L 338.62644 154.416518 
L 339.303556 148.245089 
L 339.980672 135.902232 
L 341.334904 170.873661 
L 342.01202 203.787946 
L 342.689136 209.959375 
L 343.366252 193.502232 
L 344.043368 183.216518 
L 344.720484 191.445089 
L 345.3976 203.787946 
L 346.074716 172.930804 
L 346.751832 187.330804 
L 347.428948 179.102232 
L 348.106064 160.587946 
L 348.78318 177.045089 
L 349.460296 172.930804 
L 350.137412 142.073661 
L 351.491644 172.930804 
L 352.16876 185.273661 
L 352.845876 162.645089 
L 353.522992 135.902232 
L 354.200108 146.187946 
L 354.877224 160.587946 
L 355.55434 140.016518 
L 356.231456 152.359375 
L 356.908572 162.645089 
L 357.585688 181.159375 
L 358.262804 172.930804 
L 358.93992 166.759375 
L 359.617036 187.330804 
L 360.294152 166.759375 
L 360.971268 133.845089 
L 361.648384 150.302232 
L 362.3255 160.587946 
L 363.679732 199.673661 
L 364.356848 193.502232 
L 365.033964 156.473661 
L 365.71108 160.587946 
L 366.388196 203.787946 
L 367.065312 177.045089 
L 367.742428 166.759375 
L 368.419543 162.645089 
L 369.096659 148.245089 
L 369.773775 168.816518 
L 370.450891 154.416518 
L 371.128007 185.273661 
L 371.805123 187.330804 
L 372.482239 187.330804 
L 373.159355 207.902232 
L 373.836471 191.445089 
L 374.513587 203.787946 
L 375.190703 170.873661 
L 375.867819 199.673661 
L 376.544935 199.673661 
L 377.222051 197.616518 
L 377.899167 183.216518 
L 378.576283 195.559375 
L 379.253399 181.159375 
L 379.930515 183.216518 
L 380.607631 203.787946 
L 381.284747 193.502232 
L 381.961863 191.445089 
L 382.638979 170.873661 
L 383.316095 131.787946 
L 383.993211 168.816518 
L 384.670327 181.159375 
L 385.347443 197.616518 
L 386.024559 172.930804 
L 386.701675 187.330804 
L 387.378791 189.387946 
L 388.055907 187.330804 
L 388.733023 195.559375 
L 389.410139 174.987946 
L 390.087255 160.587946 
L 391.441487 191.445089 
L 392.118603 191.445089 
L 392.795719 168.816518 
L 393.472835 177.045089 
L 394.149951 168.816518 
L 394.827067 158.530804 
L 395.504183 170.873661 
L 396.181299 158.530804 
L 396.858415 148.245089 
L 397.535531 174.987946 
L 398.212647 166.759375 
L 398.889763 179.102232 
L 399.566879 162.645089 
L 400.243995 187.330804 
L 400.921111 177.045089 
L 401.598227 195.559375 
L 402.275343 162.645089 
L 402.952459 187.330804 
L 403.629575 158.530804 
L 404.306691 98.873661 
L 404.983807 140.016518 
L 405.660923 164.702232 
L 406.338039 168.816518 
L 407.015155 170.873661 
L 407.692271 193.502232 
L 408.369387 174.987946 
L 409.046503 172.930804 
L 409.723619 80.359375 
L 410.400735 125.616518 
L 411.077851 152.359375 
L 411.754967 160.587946 
L 412.432083 156.473661 
L 413.109199 142.073661 
L 413.786315 179.102232 
L 414.463431 185.273661 
L 415.140547 121.502232 
L 415.817663 162.645089 
L 416.494779 137.959375 
L 417.171895 137.959375 
L 417.849011 135.902232 
L 418.526127 135.902232 
L 419.203243 156.473661 
L 419.880359 189.387946 
L 420.557475 214.073661 
L 421.234591 189.387946 
L 421.911707 183.216518 
L 422.588822 179.102232 
L 423.265938 156.473661 
L 423.943054 179.102232 
L 424.62017 177.045089 
L 425.297286 148.245089 
L 425.974402 154.416518 
L 426.651518 177.045089 
L 427.328634 177.045089 
L 428.00575 137.959375 
L 428.682866 137.959375 
L 429.359982 123.559375 
L 430.037098 113.273661 
L 430.714214 119.445089 
L 431.39133 140.016518 
L 432.068446 146.187946 
L 432.745562 86.530804 
L 433.422678 142.073661 
L 434.099794 162.645089 
L 434.77691 152.359375 
L 435.454026 154.416518 
L 436.131142 181.159375 
L 436.808258 187.330804 
L 438.16249 152.359375 
L 438.839606 164.702232 
L 439.516722 183.216518 
L 440.193838 158.530804 
L 440.870954 189.387946 
L 441.54807 148.245089 
L 442.225186 135.902232 
L 442.902302 160.587946 
L 443.579418 160.587946 
L 444.256534 154.416518 
L 444.93365 146.187946 
L 445.610766 162.645089 
L 446.287882 183.216518 
L 447.642114 133.845089 
L 448.31923 156.473661 
L 448.996346 140.016518 
L 449.673462 164.702232 
L 450.350578 156.473661 
L 451.027694 177.045089 
L 451.70481 152.359375 
L 452.381926 183.216518 
L 453.059042 177.045089 
L 453.736158 177.045089 
L 454.413274 142.073661 
L 455.09039 181.159375 
L 455.767506 197.616518 
L 456.444622 181.159375 
L 457.121738 193.502232 
L 457.798854 193.502232 
L 458.47597 174.987946 
L 459.153086 189.387946 
L 459.830202 166.759375 
L 460.507318 150.302232 
L 461.184434 154.416518 
L 461.86155 195.559375 
L 462.538666 142.073661 
L 463.215782 189.387946 
L 463.892898 166.759375 
L 464.570014 179.102232 
L 465.24713 177.045089 
L 465.924246 181.159375 
L 466.601362 179.102232 
L 467.278478 170.873661 
L 467.955594 177.045089 
L 468.63271 154.416518 
L 469.309826 146.187946 
L 469.986942 168.816518 
L 470.664058 148.245089 
L 471.341174 156.473661 
L 472.01829 123.559375 
L 472.695406 129.730804 
L 473.372522 117.387946 
L 474.049638 102.987946 
L 474.726754 154.416518 
L 475.40387 142.073661 
L 476.080986 152.359375 
L 476.758101 150.302232 
L 477.435217 121.502232 
L 478.112333 100.930804 
L 478.789449 168.816518 
L 479.466565 162.645089 
L 480.143681 179.102232 
L 480.820797 117.387946 
L 481.497913 158.530804 
L 482.175029 98.873661 
L 482.852145 156.473661 
L 483.529261 154.416518 
L 484.206377 137.959375 
L 484.883493 148.245089 
L 485.560609 177.045089 
L 486.237725 162.645089 
L 486.914841 154.416518 
L 487.591957 107.102232 
L 488.269073 117.387946 
L 488.946189 177.045089 
L 489.623305 133.845089 
L 490.300421 162.645089 
L 490.977537 113.273661 
L 491.654653 148.245089 
L 492.331769 137.959375 
L 493.008885 166.759375 
L 493.686001 146.187946 
L 494.363117 102.987946 
L 495.040233 129.730804 
L 495.717349 146.187946 
L 496.394465 154.416518 
L 497.071581 152.359375 
L 497.748697 146.187946 
L 498.425813 135.902232 
L 499.102929 154.416518 
L 499.780045 148.245089 
L 500.457161 78.302232 
L 501.134277 140.016518 
L 501.811393 102.987946 
L 502.488509 80.359375 
L 503.165625 123.559375 
L 503.842741 90.645089 
L 504.519857 88.587946 
L 505.196973 156.473661 
L 505.874089 135.902232 
L 506.551205 148.245089 
L 507.228321 131.787946 
L 507.905437 170.873661 
L 508.582553 121.502232 
L 509.259669 129.730804 
L 509.936785 135.902232 
L 510.613901 113.273661 
L 511.291017 152.359375 
L 511.968133 166.759375 
L 512.645249 150.302232 
L 513.322365 94.759375 
L 513.999481 119.445089 
L 514.676597 133.845089 
L 515.353713 129.730804 
L 516.030829 119.445089 
L 516.707945 146.187946 
L 517.385061 142.073661 
L 518.062177 94.759375 
L 518.739293 117.387946 
L 519.416409 111.216518 
L 520.093525 113.273661 
L 520.770641 109.159375 
L 521.447757 137.959375 
L 522.124873 76.245089 
L 522.801989 107.102232 
L 523.479105 98.873661 
L 524.156221 133.845089 
L 524.833337 105.045089 
L 525.510453 115.330804 
L 526.187569 135.902232 
L 526.864685 152.359375 
L 527.541801 100.930804 
L 528.218917 111.216518 
L 528.896033 146.187946 
L 529.573149 86.530804 
L 530.250264 105.045089 
L 530.92738 70.073661 
L 531.604496 90.645089 
L 532.281612 53.616518 
L 532.958728 90.645089 
L 534.31296 140.016518 
L 534.990076 111.216518 
L 535.667192 154.416518 
L 536.344308 76.245089 
L 537.021424 94.759375 
L 537.69854 90.645089 
L 538.375656 92.702232 
L 539.052772 107.102232 
L 539.729888 45.387946 
L 540.407004 98.873661 
L 541.08412 123.559375 
L 541.761236 90.645089 
L 542.438352 94.759375 
L 543.115468 94.759375 
L 543.792584 59.787946 
L 544.4697 74.187946 
L 545.146816 84.473661 
L 545.823932 78.302232 
L 546.501048 133.845089 
L 547.178164 80.359375 
L 548.532396 39.216518 
L 549.209512 65.959375 
L 549.886628 117.387946 
L 550.563744 150.302232 
L 551.24086 90.645089 
L 551.917976 55.673661 
L 552.595092 98.873661 
L 553.272208 102.987946 
L 553.949324 43.330804 
L 554.62644 115.330804 
L 555.303556 102.987946 
L 555.980672 100.930804 
L 556.657788 135.902232 
L 557.334904 154.416518 
L 558.01202 117.387946 
L 558.689136 107.102232 
L 559.366252 125.616518 
L 560.043368 113.273661 
L 560.720484 148.245089 
L 561.3976 158.530804 
L 562.751832 111.216518 
L 563.428948 113.273661 
L 564.106064 98.873661 
L 564.78318 160.587946 
L 565.460296 117.387946 
L 566.137412 135.902232 
L 566.814528 123.559375 
L 567.491644 119.445089 
L 568.16876 88.587946 
L 568.845876 162.645089 
L 569.522992 105.045089 
L 570.200108 105.045089 
L 570.877224 100.930804 
L 571.55434 107.102232 
L 572.231456 123.559375 
L 572.908572 158.530804 
L 573.585688 137.959375 
L 574.262804 113.273661 
L 574.93992 72.130804 
L 576.294152 125.616518 
L 577.648384 121.502232 
L 578.3255 113.273661 
L 579.002616 113.273661 
L 579.679732 107.102232 
L 580.356848 129.730804 
L 581.033964 121.502232 
L 581.71108 150.302232 
L 582.388196 123.559375 
L 583.065312 119.445089 
L 583.742428 121.502232 
L 584.419543 68.016518 
L 585.096659 88.587946 
L 586.450891 123.559375 
L 587.128007 133.845089 
L 587.805123 117.387946 
L 588.482239 129.730804 
L 589.159355 156.473661 
L 589.836471 98.873661 
L 590.513587 121.502232 
L 591.190703 86.530804 
L 591.867819 100.930804 
L 592.544935 94.759375 
L 593.222051 117.387946 
L 593.899167 35.102232 
L 594.576283 129.730804 
L 595.253399 109.159375 
L 595.930515 61.845089 
L 596.607631 22.759375 
L 597.284747 28.930804 
L 598.638979 107.102232 
L 599.316095 156.473661 
L 599.993211 172.930804 
L 600.670327 137.959375 
L 601.347443 140.016518 
L 602.024559 216.130804 
L 602.701675 216.130804 
L 604.055907 224.359375 
L 604.733023 224.359375 
L 605.410139 222.302232 
L 606.087255 224.359375 
L 608.118603 224.359375 
L 608.795719 222.302232 
L 609.472835 209.959375 
L 610.149951 82.416518 
L 610.827067 59.787946 
L 611.504183 117.387946 
L 612.181299 107.102232 
L 612.858415 82.416518 
L 613.535531 109.159375 
L 614.212647 82.416518 
L 614.889763 119.445089 
L 615.566879 82.416518 
L 616.243995 131.787946 
L 616.921111 107.102232 
L 617.598227 144.130804 
L 618.275343 76.245089 
L 618.952459 84.473661 
L 619.629575 131.787946 
L 620.306691 88.587946 
L 620.983807 121.502232 
L 621.660923 94.759375 
L 622.338039 121.502232 
L 623.015155 113.273661 
L 623.692271 80.359375 
L 624.369387 127.673661 
L 625.046503 115.330804 
L 625.723619 111.216518 
L 626.400735 113.273661 
L 627.077851 144.130804 
L 627.754967 181.159375 
L 628.432083 121.502232 
L 629.109199 107.102232 
L 629.786315 84.473661 
L 630.463431 123.559375 
L 631.140547 113.273661 
L 631.817663 111.216518 
L 632.494779 125.616518 
L 633.171895 111.216518 
L 633.849011 72.130804 
L 634.526127 92.702232 
L 635.203243 127.673661 
L 635.880359 135.902232 
L 636.557475 127.673661 
L 637.234591 84.473661 
L 637.911707 133.845089 
L 638.588822 105.045089 
L 639.265938 117.387946 
L 639.943054 150.302232 
L 640.62017 162.645089 
L 641.297286 137.959375 
L 641.974402 162.645089 
L 642.651518 152.359375 
L 643.328634 162.645089 
L 644.00575 154.416518 
L 644.682866 144.130804 
L 645.359982 100.930804 
L 646.714214 172.930804 
L 647.39133 168.816518 
L 648.068446 146.187946 
L 648.745562 131.787946 
L 649.422678 137.959375 
L 650.099794 78.302232 
L 650.77691 100.930804 
L 651.454026 98.873661 
L 652.131142 76.245089 
L 652.808258 88.587946 
L 653.485374 109.159375 
L 654.16249 92.702232 
L 654.839606 105.045089 
L 655.516722 70.073661 
L 656.193838 63.902232 
L 656.870954 119.445089 
L 657.54807 140.016518 
L 658.225186 100.930804 
L 658.902302 125.616518 
L 659.579418 135.902232 
L 660.256534 148.245089 
L 660.93365 88.587946 
L 661.610766 76.245089 
L 662.287882 158.530804 
L 662.964998 117.387946 
L 663.642114 148.245089 
L 664.31923 84.473661 
L 664.996346 76.245089 
L 665.673462 158.530804 
L 666.350578 154.416518 
L 667.027694 129.730804 
L 667.70481 137.959375 
L 668.381926 142.073661 
L 669.059042 74.187946 
L 669.736158 115.330804 
L 670.413274 100.930804 
L 671.09039 127.673661 
L 671.767506 107.102232 
L 672.444622 70.073661 
L 673.121738 137.959375 
L 673.798854 133.845089 
L 674.47597 152.359375 
L 675.153086 131.787946 
L 675.830202 133.845089 
L 676.507318 154.416518 
L 677.184434 131.787946 
L 677.86155 144.130804 
L 678.538666 142.073661 
L 679.215782 131.787946 
L 679.892898 164.702232 
L 680.570014 148.245089 
L 681.24713 156.473661 
L 681.924246 127.673661 
L 682.601362 129.730804 
L 683.955594 105.045089 
L 684.63271 105.045089 
L 685.309826 117.387946 
L 685.986942 113.273661 
L 686.664058 107.102232 
L 687.341174 82.416518 
L 688.01829 125.616518 
L 689.372522 65.959375 
L 690.049638 82.416518 
L 690.726754 121.502232 
L 691.40387 86.530804 
L 692.080986 142.073661 
L 692.758101 144.130804 
L 693.435217 109.159375 
L 694.112333 135.902232 
L 694.789449 113.273661 
L 695.466565 80.359375 
L 696.143681 92.702232 
L 696.820797 26.873661 
L 697.497913 80.359375 
L 698.175029 86.530804 
L 698.852145 86.530804 
L 699.529261 113.273661 
L 699.529261 113.273661 
" clip-path="url(#p23a6059574)" style="fill: none; stroke: #1f77b4; stroke-width: 1.5; stroke-linecap: square"/>
   </g>
   <g id="patch_3">
    <path d="M 60.365625 234.439375 
L 60.365625 12.679375 
" style="fill: none; stroke: #000000; stroke-width: 0.8; stroke-linejoin: miter; stroke-linecap: square"/>
   </g>
   <g id="patch_4">
    <path d="M 729.965625 234.439375 
L 729.965625 12.679375 
" style="fill: none; stroke: #000000; stroke-width: 0.8; stroke-linejoin: miter; stroke-linecap: square"/>
   </g>
   <g id="patch_5">
    <path d="M 60.365625 234.439375 
L 729.965625 234.439375 
" style="fill: none; stroke: #000000; stroke-width: 0.8; stroke-linejoin: miter; stroke-linecap: square"/>
   </g>
   <g id="patch_6">
    <path d="M 60.365625 12.679375 
L 729.965625 12.679375 
" style="fill: none; stroke: #000000; stroke-width: 0.8; stroke-linejoin: miter; stroke-linecap: square"/>
   </g>
   <g id="legend_1">
    <g id="patch_7">
     <path d="M 313.356875 48.101875 
L 476.974375 48.101875 
Q 480.174375 48.101875 480.174375 44.901875 
L 480.174375 23.879375 
Q 480.174375 20.679375 476.974375 20.679375 
L 313.356875 20.679375 
Q 310.156875 20.679375 310.156875 23.879375 
L 310.156875 44.901875 
Q 310.156875 48.101875 313.356875 48.101875 
z
" style="fill: #ffffff; opacity: 0.8; stroke: #cccccc; stroke-linejoin: miter"/>
    </g>
    <g id="line2d_24">
     <path d="M 316.556875 32.679375 
L 332.556875 32.679375 
L 348.556875 32.679375 
" style="fill: none; stroke: #1f77b4; stroke-width: 1.5; stroke-linecap: square"/>
    </g>
    <g id="text_14">
     <!-- Concurrent Users -->
     <g transform="translate(361.356875 38.279375)scale(0.16 -0.16)">
      <use xlink:href="#TimesNewRomanPSMT-43"/>
      <use xlink:href="#TimesNewRomanPSMT-6f" x="66.699219"/>
      <use xlink:href="#TimesNewRomanPSMT-6e" x="116.699219"/>
      <use xlink:href="#TimesNewRomanPSMT-63" x="166.699219"/>
      <use xlink:href="#TimesNewRomanPSMT-75" x="211.083984"/>
      <use xlink:href="#TimesNewRomanPSMT-72" x="261.083984"/>
      <use xlink:href="#TimesNewRomanPSMT-72" x="294.384766"/>
      <use xlink:href="#TimesNewRomanPSMT-65" x="327.685547"/>
      <use xlink:href="#TimesNewRomanPSMT-6e" x="372.070312"/>
      <use xlink:href="#TimesNewRomanPSMT-74" x="422.070312"/>
      <use xlink:href="#TimesNewRomanPSMT-20" x="449.853516"/>
      <use xlink:href="#TimesNewRomanPSMT-55" x="474.853516"/>
      <use xlink:href="#TimesNewRomanPSMT-73" x="547.070312"/>
      <use xlink:href="#TimesNewRomanPSMT-65" x="585.986328"/>
      <use xlink:href="#TimesNewRomanPSMT-72" x="630.371094"/>
      <use xlink:href="#TimesNewRomanPSMT-73" x="663.671875"/>
     </g>
    </g>
   </g>
  </g>
 </g>
 <defs>
  <clipPath id="p23a6059574">
   <rect x="60.365625" y="12.679375" width="669.6" height="221.76"/>
  </clipPath>
 </defs>
</svg>
